<svg xmlns="http://www.w3.org/2000/svg" xmlns:xlink="http://www.w3.org/1999/xlink" width="631" zoomAndPan="magnify" viewBox="0 0 473.25 191.249993" height="255" preserveAspectRatio="xMidYMid meet" version="1.0"><defs><filter x="0%" y="0%" width="100%" height="100%" id="972732b7ea"><feColorMatrix values="0 0 0 0 1 0 0 0 0 1 0 0 0 0 1 0 0 0 1 0" color-interpolation-filters="sRGB"/></filter><g/><mask id="25e1863ee2"><g filter="url(#972732b7ea)"><rect x="-47.325" width="567.9" fill="#000000" y="-19.124999" height="229.499992" fill-opacity="0.41"/></g></mask><clipPath id="45864d6529"><path d="M 0.945312 0.640625 L 381.910156 0.640625 L 381.910156 88.980469 L 0.945312 88.980469 Z M 0.945312 0.640625 " clip-rule="nonzero"/></clipPath><clipPath id="1ae6db931d"><path d="M 9.910156 0.640625 L 372.796875 0.640625 C 375.171875 0.640625 377.453125 1.585938 379.136719 3.265625 C 380.816406 4.949219 381.761719 7.230469 381.761719 9.605469 L 381.761719 80.015625 C 381.761719 82.394531 380.816406 84.675781 379.136719 86.355469 C 377.453125 88.035156 375.171875 88.980469 372.796875 88.980469 L 9.910156 88.980469 C 7.53125 88.980469 5.25 88.035156 3.570312 86.355469 C 1.886719 84.675781 0.945312 82.394531 0.945312 80.015625 L 0.945312 9.605469 C 0.945312 7.230469 1.886719 4.949219 3.570312 3.265625 C 5.25 1.585938 7.53125 0.640625 9.910156 0.640625 Z M 9.910156 0.640625 " clip-rule="nonzero"/></clipPath><clipPath id="354acfc12e"><rect x="0" width="383" y="0" height="90"/></clipPath></defs><g mask="url(#25e1863ee2)"><g transform="matrix(1, 0, 0, 1, 29, 39)"><g clip-path="url(#354acfc12e)"><g clip-path="url(#45864d6529)"><g clip-path="url(#1ae6db931d)"><path fill="#9dbdba" d="M 0.945312 0.640625 L 381.910156 0.640625 L 381.910156 88.980469 L 0.945312 88.980469 Z M 0.945312 0.640625 " fill-opacity="1" fill-rule="nonzero"/></g></g></g></g></g><g fill="#ffffff" fill-opacity="1"><g transform="translate(40.341032, 109.211738)"><g><path d="M 75.828125 -51.78125 L 62.328125 0 L 47.0625 0 L 38.796875 -34.078125 L 30.25 0 L 14.96875 0 L 1.84375 -51.78125 L 15.34375 -51.78125 L 22.796875 -14.09375 L 32.015625 -51.78125 L 45.875 -51.78125 L 54.734375 -14.09375 L 62.265625 -51.78125 Z M 75.828125 -51.78125 "/></g></g></g><g fill="#ffffff" fill-opacity="1"><g transform="translate(117.950513, 109.211738)"><g><path d="M 43.375 -21.25 C 43.375 -20.0625 43.300781 -18.832031 43.15625 -17.5625 L 14.609375 -17.5625 C 14.804688 -15 15.628906 -13.039062 17.078125 -11.6875 C 18.523438 -10.332031 20.304688 -9.65625 22.421875 -9.65625 C 25.566406 -9.65625 27.753906 -10.984375 28.984375 -13.640625 L 42.421875 -13.640625 C 41.722656 -10.941406 40.476562 -8.507812 38.6875 -6.34375 C 36.894531 -4.175781 34.644531 -2.476562 31.9375 -1.25 C 29.238281 -0.0195312 26.21875 0.59375 22.875 0.59375 C 18.832031 0.59375 15.238281 -0.265625 12.09375 -1.984375 C 8.945312 -3.710938 6.488281 -6.171875 4.71875 -9.359375 C 2.945312 -12.554688 2.0625 -16.296875 2.0625 -20.578125 C 2.0625 -24.859375 2.929688 -28.597656 4.671875 -31.796875 C 6.421875 -34.992188 8.867188 -37.453125 12.015625 -39.171875 C 15.171875 -40.890625 18.789062 -41.75 22.875 -41.75 C 26.851562 -41.75 30.390625 -40.910156 33.484375 -39.234375 C 36.585938 -37.566406 39.007812 -35.179688 40.75 -32.078125 C 42.5 -28.984375 43.375 -25.375 43.375 -21.25 Z M 30.46875 -24.5625 C 30.46875 -26.726562 29.726562 -28.445312 28.25 -29.71875 C 26.78125 -31 24.9375 -31.640625 22.71875 -31.640625 C 20.601562 -31.640625 18.820312 -31.023438 17.375 -29.796875 C 15.925781 -28.566406 15.023438 -26.820312 14.671875 -24.5625 Z M 30.46875 -24.5625 "/></g></g></g><g fill="#ffffff" fill-opacity="1"><g transform="translate(163.394855, 109.211738)"><g><path d="M 17.1875 -54.59375 L 17.1875 0 L 4.578125 0 L 4.578125 -54.59375 Z M 17.1875 -54.59375 "/></g></g></g><g fill="#ffffff" fill-opacity="1"><g transform="translate(185.157973, 109.211738)"><g><path d="M 2.0625 -20.578125 C 2.0625 -24.859375 2.929688 -28.597656 4.671875 -31.796875 C 6.421875 -34.992188 8.859375 -37.453125 11.984375 -39.171875 C 15.109375 -40.890625 18.6875 -41.75 22.71875 -41.75 C 27.882812 -41.75 32.195312 -40.394531 35.65625 -37.6875 C 39.125 -34.988281 41.398438 -31.179688 42.484375 -26.265625 L 29.0625 -26.265625 C 27.925781 -29.410156 25.738281 -30.984375 22.5 -30.984375 C 20.1875 -30.984375 18.34375 -30.082031 16.96875 -28.28125 C 15.59375 -26.488281 14.90625 -23.921875 14.90625 -20.578125 C 14.90625 -17.234375 15.59375 -14.660156 16.96875 -12.859375 C 18.34375 -11.066406 20.1875 -10.171875 22.5 -10.171875 C 25.738281 -10.171875 27.925781 -11.75 29.0625 -14.90625 L 42.484375 -14.90625 C 41.398438 -10.082031 39.113281 -6.289062 35.625 -3.53125 C 32.132812 -0.78125 27.832031 0.59375 22.71875 0.59375 C 18.6875 0.59375 15.109375 -0.265625 11.984375 -1.984375 C 8.859375 -3.710938 6.421875 -6.171875 4.671875 -9.359375 C 2.929688 -12.554688 2.0625 -16.296875 2.0625 -20.578125 Z M 2.0625 -20.578125 "/></g></g></g><g fill="#ffffff" fill-opacity="1"><g transform="translate(229.790803, 109.211738)"><g><path d="M 23.3125 0.59375 C 19.28125 0.59375 15.648438 -0.265625 12.421875 -1.984375 C 9.203125 -3.710938 6.671875 -6.171875 4.828125 -9.359375 C 2.984375 -12.554688 2.0625 -16.296875 2.0625 -20.578125 C 2.0625 -24.804688 2.992188 -28.53125 4.859375 -31.75 C 6.734375 -34.976562 9.289062 -37.453125 12.53125 -39.171875 C 15.78125 -40.890625 19.421875 -41.75 23.453125 -41.75 C 27.484375 -41.75 31.125 -40.890625 34.375 -39.171875 C 37.625 -37.453125 40.179688 -34.976562 42.046875 -31.75 C 43.910156 -28.53125 44.84375 -24.804688 44.84375 -20.578125 C 44.84375 -16.347656 43.894531 -12.625 42 -9.40625 C 40.113281 -6.1875 37.535156 -3.710938 34.265625 -1.984375 C 30.992188 -0.265625 27.34375 0.59375 23.3125 0.59375 Z M 23.3125 -10.328125 C 25.71875 -10.328125 27.769531 -11.210938 29.46875 -12.984375 C 31.164062 -14.753906 32.015625 -17.285156 32.015625 -20.578125 C 32.015625 -23.867188 31.191406 -26.398438 29.546875 -28.171875 C 27.898438 -29.941406 25.867188 -30.828125 23.453125 -30.828125 C 20.992188 -30.828125 18.953125 -29.953125 17.328125 -28.203125 C 15.710938 -26.460938 14.90625 -23.921875 14.90625 -20.578125 C 14.90625 -17.285156 15.703125 -14.753906 17.296875 -12.984375 C 18.898438 -11.210938 20.90625 -10.328125 23.3125 -10.328125 Z M 23.3125 -10.328125 "/></g></g></g><g fill="#ffffff" fill-opacity="1"><g transform="translate(276.78439, 109.211738)"><g><path d="M 57.09375 -41.609375 C 62.207031 -41.609375 66.273438 -40.054688 69.296875 -36.953125 C 72.328125 -33.859375 73.84375 -29.554688 73.84375 -24.046875 L 73.84375 0 L 61.296875 0 L 61.296875 -22.34375 C 61.296875 -25 60.59375 -27.050781 59.1875 -28.5 C 57.789062 -29.957031 55.863281 -30.6875 53.40625 -30.6875 C 50.945312 -30.6875 49.015625 -29.957031 47.609375 -28.5 C 46.210938 -27.050781 45.515625 -25 45.515625 -22.34375 L 45.515625 0 L 32.96875 0 L 32.96875 -22.34375 C 32.96875 -25 32.265625 -27.050781 30.859375 -28.5 C 29.460938 -29.957031 27.535156 -30.6875 25.078125 -30.6875 C 22.617188 -30.6875 20.6875 -29.957031 19.28125 -28.5 C 17.882812 -27.050781 17.1875 -25 17.1875 -22.34375 L 17.1875 0 L 4.578125 0 L 4.578125 -41.15625 L 17.1875 -41.15625 L 17.1875 -36 C 18.46875 -37.71875 20.140625 -39.082031 22.203125 -40.09375 C 24.265625 -41.101562 26.601562 -41.609375 29.21875 -41.609375 C 32.3125 -41.609375 35.070312 -40.941406 37.5 -39.609375 C 39.9375 -38.285156 41.847656 -36.394531 43.234375 -33.9375 C 44.648438 -36.195312 46.585938 -38.039062 49.046875 -39.46875 C 51.515625 -40.894531 54.195312 -41.609375 57.09375 -41.609375 Z M 57.09375 -41.609375 "/></g></g></g><g fill="#ffffff" fill-opacity="1"><g transform="translate(354.910274, 109.211738)"><g><path d="M 43.375 -21.25 C 43.375 -20.0625 43.300781 -18.832031 43.15625 -17.5625 L 14.609375 -17.5625 C 14.804688 -15 15.628906 -13.039062 17.078125 -11.6875 C 18.523438 -10.332031 20.304688 -9.65625 22.421875 -9.65625 C 25.566406 -9.65625 27.753906 -10.984375 28.984375 -13.640625 L 42.421875 -13.640625 C 41.722656 -10.941406 40.476562 -8.507812 38.6875 -6.34375 C 36.894531 -4.175781 34.644531 -2.476562 31.9375 -1.25 C 29.238281 -0.0195312 26.21875 0.59375 22.875 0.59375 C 18.832031 0.59375 15.238281 -0.265625 12.09375 -1.984375 C 8.945312 -3.710938 6.488281 -6.171875 4.71875 -9.359375 C 2.945312 -12.554688 2.0625 -16.296875 2.0625 -20.578125 C 2.0625 -24.859375 2.929688 -28.597656 4.671875 -31.796875 C 6.421875 -34.992188 8.867188 -37.453125 12.015625 -39.171875 C 15.171875 -40.890625 18.789062 -41.75 22.875 -41.75 C 26.851562 -41.75 30.390625 -40.910156 33.484375 -39.234375 C 36.585938 -37.566406 39.007812 -35.179688 40.75 -32.078125 C 42.5 -28.984375 43.375 -25.375 43.375 -21.25 Z M 30.46875 -24.5625 C 30.46875 -26.726562 29.726562 -28.445312 28.25 -29.71875 C 26.78125 -31 24.9375 -31.640625 22.71875 -31.640625 C 20.601562 -31.640625 18.820312 -31.023438 17.375 -29.796875 C 15.925781 -28.566406 15.023438 -26.820312 14.671875 -24.5625 Z M 30.46875 -24.5625 "/></g></g></g><g fill="#ffffff" fill-opacity="1"><g transform="translate(38.699633, 151.614174)"><g><path d="M 6.875 0.125 C 5.726562 0.125 4.671875 -0.140625 3.703125 -0.671875 C 2.742188 -1.210938 1.984375 -1.960938 1.421875 -2.921875 C 0.859375 -3.878906 0.578125 -4.960938 0.578125 -6.171875 C 0.578125 -7.367188 0.859375 -8.441406 1.421875 -9.390625 C 1.984375 -10.347656 2.742188 -11.09375 3.703125 -11.625 C 4.671875 -12.164062 5.726562 -12.4375 6.875 -12.4375 C 8.03125 -12.4375 9.085938 -12.164062 10.046875 -11.625 C 11.015625 -11.09375 11.773438 -10.347656 12.328125 -9.390625 C 12.878906 -8.441406 13.15625 -7.367188 13.15625 -6.171875 C 13.15625 -4.960938 12.875 -3.878906 12.3125 -2.921875 C 11.757812 -1.960938 11.003906 -1.210938 10.046875 -0.671875 C 9.085938 -0.140625 8.03125 0.125 6.875 0.125 Z M 6.875 -2.609375 C 7.851562 -2.609375 8.632812 -2.929688 9.21875 -3.578125 C 9.8125 -4.234375 10.109375 -5.097656 10.109375 -6.171875 C 10.109375 -7.253906 9.8125 -8.117188 9.21875 -8.765625 C 8.632812 -9.410156 7.851562 -9.734375 6.875 -9.734375 C 5.882812 -9.734375 5.097656 -9.410156 4.515625 -8.765625 C 3.929688 -8.128906 3.640625 -7.265625 3.640625 -6.171875 C 3.640625 -5.085938 3.929688 -4.222656 4.515625 -3.578125 C 5.097656 -2.929688 5.882812 -2.609375 6.875 -2.609375 Z M 6.875 -2.609375 "/></g></g></g><g fill="#ffffff" fill-opacity="1"><g transform="translate(52.425385, 151.614174)"><g><path d="M 0.484375 -4.890625 C 0.484375 -5.890625 0.671875 -6.769531 1.046875 -7.53125 C 1.429688 -8.289062 1.945312 -8.875 2.59375 -9.28125 C 3.25 -9.6875 3.976562 -9.890625 4.78125 -9.890625 C 5.46875 -9.890625 6.070312 -9.75 6.59375 -9.46875 C 7.113281 -9.1875 7.515625 -8.820312 7.796875 -8.375 L 7.796875 -9.75 L 10.78125 -9.75 L 10.78125 0 L 7.796875 0 L 7.796875 -1.375 C 7.503906 -0.925781 7.097656 -0.5625 6.578125 -0.28125 C 6.054688 0 5.453125 0.140625 4.765625 0.140625 C 3.972656 0.140625 3.25 -0.0625 2.59375 -0.46875 C 1.945312 -0.882812 1.429688 -1.472656 1.046875 -2.234375 C 0.671875 -3.003906 0.484375 -3.890625 0.484375 -4.890625 Z M 7.796875 -4.875 C 7.796875 -5.613281 7.585938 -6.195312 7.171875 -6.625 C 6.753906 -7.0625 6.25 -7.28125 5.65625 -7.28125 C 5.0625 -7.28125 4.554688 -7.066406 4.140625 -6.640625 C 3.734375 -6.222656 3.53125 -5.640625 3.53125 -4.890625 C 3.53125 -4.140625 3.734375 -3.546875 4.140625 -3.109375 C 4.554688 -2.679688 5.0625 -2.46875 5.65625 -2.46875 C 6.25 -2.46875 6.753906 -2.679688 7.171875 -3.109375 C 7.585938 -3.535156 7.796875 -4.125 7.796875 -4.875 Z M 7.796875 -4.875 "/></g></g></g><g fill="#ffffff" fill-opacity="1"><g transform="translate(64.282617, 151.614174)"><g><path d="M 4.0625 -12.921875 L 4.0625 0 L 1.078125 0 L 1.078125 -12.921875 Z M 4.0625 -12.921875 "/></g></g></g><g fill="#ffffff" fill-opacity="1"><g transform="translate(69.434137, 151.614174)"><g><path d="M 0.484375 -4.890625 C 0.484375 -5.890625 0.671875 -6.769531 1.046875 -7.53125 C 1.429688 -8.289062 1.945312 -8.875 2.59375 -9.28125 C 3.25 -9.6875 3.976562 -9.890625 4.78125 -9.890625 C 5.46875 -9.890625 6.070312 -9.75 6.59375 -9.46875 C 7.113281 -9.1875 7.515625 -8.820312 7.796875 -8.375 L 7.796875 -9.75 L 10.78125 -9.75 L 10.78125 0 L 7.796875 0 L 7.796875 -1.375 C 7.503906 -0.925781 7.097656 -0.5625 6.578125 -0.28125 C 6.054688 0 5.453125 0.140625 4.765625 0.140625 C 3.972656 0.140625 3.25 -0.0625 2.59375 -0.46875 C 1.945312 -0.882812 1.429688 -1.472656 1.046875 -2.234375 C 0.671875 -3.003906 0.484375 -3.890625 0.484375 -4.890625 Z M 7.796875 -4.875 C 7.796875 -5.613281 7.585938 -6.195312 7.171875 -6.625 C 6.753906 -7.0625 6.25 -7.28125 5.65625 -7.28125 C 5.0625 -7.28125 4.554688 -7.066406 4.140625 -6.640625 C 3.734375 -6.222656 3.53125 -5.640625 3.53125 -4.890625 C 3.53125 -4.140625 3.734375 -3.546875 4.140625 -3.109375 C 4.554688 -2.679688 5.0625 -2.46875 5.65625 -2.46875 C 6.25 -2.46875 6.753906 -2.679688 7.171875 -3.109375 C 7.585938 -3.535156 7.796875 -4.125 7.796875 -4.875 Z M 7.796875 -4.875 "/></g></g></g><g fill="#ffffff" fill-opacity="1"><g transform="translate(81.29137, 151.614174)"><g><path d="M 7.078125 -9.859375 C 8.191406 -9.859375 9.085938 -9.488281 9.765625 -8.75 C 10.441406 -8.007812 10.78125 -6.988281 10.78125 -5.6875 L 10.78125 0 L 7.8125 0 L 7.8125 -5.296875 C 7.8125 -5.941406 7.640625 -6.445312 7.296875 -6.8125 C 6.960938 -7.175781 6.507812 -7.359375 5.9375 -7.359375 C 5.363281 -7.359375 4.90625 -7.175781 4.5625 -6.8125 C 4.226562 -6.445312 4.0625 -5.941406 4.0625 -5.296875 L 4.0625 0 L 1.078125 0 L 1.078125 -12.921875 L 4.0625 -12.921875 L 4.0625 -8.4375 C 4.375 -8.863281 4.789062 -9.207031 5.3125 -9.46875 C 5.832031 -9.726562 6.421875 -9.859375 7.078125 -9.859375 Z M 7.078125 -9.859375 "/></g></g></g><g fill="#ffffff" fill-opacity="1"><g transform="translate(93.061294, 151.614174)"><g><path d="M 2.484375 0.140625 C 1.953125 0.140625 1.519531 -0.0078125 1.1875 -0.3125 C 0.863281 -0.625 0.703125 -1.007812 0.703125 -1.46875 C 0.703125 -1.9375 0.863281 -2.328125 1.1875 -2.640625 C 1.519531 -2.953125 1.953125 -3.109375 2.484375 -3.109375 C 2.992188 -3.109375 3.414062 -2.953125 3.75 -2.640625 C 4.082031 -2.328125 4.25 -1.9375 4.25 -1.46875 C 4.25 -1.007812 4.082031 -0.625 3.75 -0.3125 C 3.414062 -0.0078125 2.992188 0.140625 2.484375 0.140625 Z M 2.484375 0.140625 "/></g></g></g><g fill="#ffffff" fill-opacity="1"><g transform="translate(97.985807, 151.614174)"><g/></g></g><g fill="#ffffff" fill-opacity="1"><g transform="translate(101.687917, 151.614174)"><g><path d="M 4.0625 -2.3125 L 7.984375 -2.3125 L 7.984375 0 L 1.078125 0 L 1.078125 -12.265625 L 4.0625 -12.265625 Z M 4.0625 -2.3125 "/></g></g></g><g fill="#ffffff" fill-opacity="1"><g transform="translate(110.017666, 151.614174)"><g><path d="M 10.265625 -5.03125 C 10.265625 -4.75 10.25 -4.457031 10.21875 -4.15625 L 3.453125 -4.15625 C 3.503906 -3.550781 3.703125 -3.085938 4.046875 -2.765625 C 4.390625 -2.441406 4.8125 -2.28125 5.3125 -2.28125 C 6.050781 -2.28125 6.566406 -2.597656 6.859375 -3.234375 L 10.046875 -3.234375 C 9.878906 -2.585938 9.582031 -2.007812 9.15625 -1.5 C 8.738281 -0.988281 8.207031 -0.585938 7.5625 -0.296875 C 6.925781 -0.00390625 6.210938 0.140625 5.421875 0.140625 C 4.460938 0.140625 3.609375 -0.0625 2.859375 -0.46875 C 2.117188 -0.875 1.535156 -1.457031 1.109375 -2.21875 C 0.691406 -2.976562 0.484375 -3.863281 0.484375 -4.875 C 0.484375 -5.882812 0.691406 -6.769531 1.109375 -7.53125 C 1.523438 -8.289062 2.101562 -8.875 2.84375 -9.28125 C 3.59375 -9.6875 4.453125 -9.890625 5.421875 -9.890625 C 6.359375 -9.890625 7.191406 -9.691406 7.921875 -9.296875 C 8.660156 -8.898438 9.234375 -8.332031 9.640625 -7.59375 C 10.054688 -6.863281 10.265625 -6.007812 10.265625 -5.03125 Z M 7.21875 -5.8125 C 7.21875 -6.320312 7.039062 -6.726562 6.6875 -7.03125 C 6.34375 -7.34375 5.90625 -7.5 5.375 -7.5 C 4.875 -7.5 4.453125 -7.351562 4.109375 -7.0625 C 3.765625 -6.769531 3.550781 -6.351562 3.46875 -5.8125 Z M 7.21875 -5.8125 "/></g></g></g><g fill="#ffffff" fill-opacity="1"><g transform="translate(120.774744, 151.614174)"><g><path d="M 0.484375 -4.890625 C 0.484375 -5.890625 0.671875 -6.769531 1.046875 -7.53125 C 1.429688 -8.289062 1.945312 -8.875 2.59375 -9.28125 C 3.25 -9.6875 3.976562 -9.890625 4.78125 -9.890625 C 5.46875 -9.890625 6.070312 -9.75 6.59375 -9.46875 C 7.113281 -9.1875 7.515625 -8.820312 7.796875 -8.375 L 7.796875 -9.75 L 10.78125 -9.75 L 10.78125 0 L 7.796875 0 L 7.796875 -1.375 C 7.503906 -0.925781 7.097656 -0.5625 6.578125 -0.28125 C 6.054688 0 5.453125 0.140625 4.765625 0.140625 C 3.972656 0.140625 3.25 -0.0625 2.59375 -0.46875 C 1.945312 -0.882812 1.429688 -1.472656 1.046875 -2.234375 C 0.671875 -3.003906 0.484375 -3.890625 0.484375 -4.890625 Z M 7.796875 -4.875 C 7.796875 -5.613281 7.585938 -6.195312 7.171875 -6.625 C 6.753906 -7.0625 6.25 -7.28125 5.65625 -7.28125 C 5.0625 -7.28125 4.554688 -7.066406 4.140625 -6.640625 C 3.734375 -6.222656 3.53125 -5.640625 3.53125 -4.890625 C 3.53125 -4.140625 3.734375 -3.546875 4.140625 -3.109375 C 4.554688 -2.679688 5.0625 -2.46875 5.65625 -2.46875 C 6.25 -2.46875 6.753906 -2.679688 7.171875 -3.109375 C 7.585938 -3.535156 7.796875 -4.125 7.796875 -4.875 Z M 7.796875 -4.875 "/></g></g></g><g fill="#ffffff" fill-opacity="1"><g transform="translate(132.631976, 151.614174)"><g><path d="M 4.0625 -8.125 C 4.414062 -8.65625 4.851562 -9.078125 5.375 -9.390625 C 5.90625 -9.703125 6.488281 -9.859375 7.125 -9.859375 L 7.125 -6.6875 L 6.3125 -6.6875 C 5.5625 -6.6875 5 -6.523438 4.625 -6.203125 C 4.25 -5.890625 4.0625 -5.332031 4.0625 -4.53125 L 4.0625 0 L 1.078125 0 L 1.078125 -9.75 L 4.0625 -9.75 Z M 4.0625 -8.125 "/></g></g></g><g fill="#ffffff" fill-opacity="1"><g transform="translate(140.106053, 151.614174)"><g><path d="M 7.015625 -9.859375 C 8.160156 -9.859375 9.070312 -9.488281 9.75 -8.75 C 10.4375 -8.007812 10.78125 -6.988281 10.78125 -5.6875 L 10.78125 0 L 7.8125 0 L 7.8125 -5.296875 C 7.8125 -5.941406 7.640625 -6.445312 7.296875 -6.8125 C 6.960938 -7.175781 6.507812 -7.359375 5.9375 -7.359375 C 5.363281 -7.359375 4.90625 -7.175781 4.5625 -6.8125 C 4.226562 -6.445312 4.0625 -5.941406 4.0625 -5.296875 L 4.0625 0 L 1.078125 0 L 1.078125 -9.75 L 4.0625 -9.75 L 4.0625 -8.453125 C 4.375 -8.878906 4.785156 -9.21875 5.296875 -9.46875 C 5.804688 -9.726562 6.378906 -9.859375 7.015625 -9.859375 Z M 7.015625 -9.859375 "/></g></g></g><g fill="#ffffff" fill-opacity="1"><g transform="translate(151.875978, 151.614174)"><g/></g></g><g fill="#ffffff" fill-opacity="1"><g transform="translate(155.578088, 151.614174)"><g><path d="M 4.0625 -8.375 C 4.34375 -8.820312 4.742188 -9.1875 5.265625 -9.46875 C 5.796875 -9.75 6.398438 -9.890625 7.078125 -9.890625 C 7.878906 -9.890625 8.601562 -9.6875 9.25 -9.28125 C 9.90625 -8.875 10.421875 -8.289062 10.796875 -7.53125 C 11.179688 -6.769531 11.375 -5.890625 11.375 -4.890625 C 11.375 -3.890625 11.179688 -3.003906 10.796875 -2.234375 C 10.421875 -1.472656 9.90625 -0.882812 9.25 -0.46875 C 8.601562 -0.0625 7.878906 0.140625 7.078125 0.140625 C 6.390625 0.140625 5.785156 0.00390625 5.265625 -0.265625 C 4.753906 -0.546875 4.351562 -0.910156 4.0625 -1.359375 L 4.0625 0 L 1.078125 0 L 1.078125 -12.921875 L 4.0625 -12.921875 Z M 8.328125 -4.890625 C 8.328125 -5.640625 8.117188 -6.222656 7.703125 -6.640625 C 7.296875 -7.066406 6.789062 -7.28125 6.1875 -7.28125 C 5.59375 -7.28125 5.085938 -7.0625 4.671875 -6.625 C 4.253906 -6.195312 4.046875 -5.613281 4.046875 -4.875 C 4.046875 -4.125 4.253906 -3.535156 4.671875 -3.109375 C 5.085938 -2.679688 5.59375 -2.46875 6.1875 -2.46875 C 6.78125 -2.46875 7.285156 -2.679688 7.703125 -3.109375 C 8.117188 -3.546875 8.328125 -4.140625 8.328125 -4.890625 Z M 8.328125 -4.890625 "/></g></g></g><g fill="#ffffff" fill-opacity="1"><g transform="translate(167.435321, 151.614174)"><g><path d="M 0.484375 -4.890625 C 0.484375 -5.890625 0.671875 -6.769531 1.046875 -7.53125 C 1.429688 -8.289062 1.945312 -8.875 2.59375 -9.28125 C 3.25 -9.6875 3.976562 -9.890625 4.78125 -9.890625 C 5.46875 -9.890625 6.070312 -9.75 6.59375 -9.46875 C 7.113281 -9.1875 7.515625 -8.820312 7.796875 -8.375 L 7.796875 -9.75 L 10.78125 -9.75 L 10.78125 0 L 7.796875 0 L 7.796875 -1.375 C 7.503906 -0.925781 7.097656 -0.5625 6.578125 -0.28125 C 6.054688 0 5.453125 0.140625 4.765625 0.140625 C 3.972656 0.140625 3.25 -0.0625 2.59375 -0.46875 C 1.945312 -0.882812 1.429688 -1.472656 1.046875 -2.234375 C 0.671875 -3.003906 0.484375 -3.890625 0.484375 -4.890625 Z M 7.796875 -4.875 C 7.796875 -5.613281 7.585938 -6.195312 7.171875 -6.625 C 6.753906 -7.0625 6.25 -7.28125 5.65625 -7.28125 C 5.0625 -7.28125 4.554688 -7.066406 4.140625 -6.640625 C 3.734375 -6.222656 3.53125 -5.640625 3.53125 -4.890625 C 3.53125 -4.140625 3.734375 -3.546875 4.140625 -3.109375 C 4.554688 -2.679688 5.0625 -2.46875 5.65625 -2.46875 C 6.25 -2.46875 6.753906 -2.679688 7.171875 -3.109375 C 7.585938 -3.535156 7.796875 -4.125 7.796875 -4.875 Z M 7.796875 -4.875 "/></g></g></g><g fill="#ffffff" fill-opacity="1"><g transform="translate(179.292553, 151.614174)"><g><path d="M 5.046875 0.140625 C 4.191406 0.140625 3.429688 -0.00390625 2.765625 -0.296875 C 2.109375 -0.585938 1.585938 -0.984375 1.203125 -1.484375 C 0.816406 -1.992188 0.601562 -2.566406 0.5625 -3.203125 L 3.515625 -3.203125 C 3.546875 -2.859375 3.703125 -2.582031 3.984375 -2.375 C 4.265625 -2.164062 4.609375 -2.0625 5.015625 -2.0625 C 5.390625 -2.0625 5.675781 -2.132812 5.875 -2.28125 C 6.082031 -2.425781 6.1875 -2.613281 6.1875 -2.84375 C 6.1875 -3.125 6.039062 -3.332031 5.75 -3.46875 C 5.457031 -3.601562 4.984375 -3.75 4.328125 -3.90625 C 3.628906 -4.070312 3.046875 -4.242188 2.578125 -4.421875 C 2.117188 -4.609375 1.71875 -4.894531 1.375 -5.28125 C 1.039062 -5.675781 0.875 -6.203125 0.875 -6.859375 C 0.875 -7.421875 1.023438 -7.929688 1.328125 -8.390625 C 1.640625 -8.847656 2.09375 -9.210938 2.6875 -9.484375 C 3.289062 -9.753906 4.007812 -9.890625 4.84375 -9.890625 C 6.0625 -9.890625 7.019531 -9.585938 7.71875 -8.984375 C 8.425781 -8.378906 8.832031 -7.570312 8.9375 -6.5625 L 6.1875 -6.5625 C 6.132812 -6.90625 5.984375 -7.175781 5.734375 -7.375 C 5.484375 -7.570312 5.15625 -7.671875 4.75 -7.671875 C 4.40625 -7.671875 4.140625 -7.601562 3.953125 -7.46875 C 3.765625 -7.332031 3.671875 -7.148438 3.671875 -6.921875 C 3.671875 -6.640625 3.816406 -6.425781 4.109375 -6.28125 C 4.410156 -6.144531 4.875 -6.007812 5.5 -5.875 C 6.21875 -5.6875 6.804688 -5.5 7.265625 -5.3125 C 7.722656 -5.132812 8.125 -4.84375 8.46875 -4.4375 C 8.8125 -4.039062 8.988281 -3.503906 9 -2.828125 C 9 -2.253906 8.835938 -1.742188 8.515625 -1.296875 C 8.191406 -0.847656 7.726562 -0.492188 7.125 -0.234375 C 6.53125 0.015625 5.835938 0.140625 5.046875 0.140625 Z M 5.046875 0.140625 "/></g></g></g><g fill="#ffffff" fill-opacity="1"><g transform="translate(189.036795, 151.614174)"><g><path d="M 2.578125 -10.765625 C 2.054688 -10.765625 1.628906 -10.914062 1.296875 -11.21875 C 0.960938 -11.53125 0.796875 -11.914062 0.796875 -12.375 C 0.796875 -12.832031 0.960938 -13.21875 1.296875 -13.53125 C 1.628906 -13.84375 2.054688 -14 2.578125 -14 C 3.097656 -14 3.519531 -13.84375 3.84375 -13.53125 C 4.175781 -13.21875 4.34375 -12.832031 4.34375 -12.375 C 4.34375 -11.914062 4.175781 -11.53125 3.84375 -11.21875 C 3.519531 -10.914062 3.097656 -10.765625 2.578125 -10.765625 Z M 4.0625 -9.75 L 4.0625 0 L 1.078125 0 L 1.078125 -9.75 Z M 4.0625 -9.75 "/></g></g></g><g fill="#ffffff" fill-opacity="1"><g transform="translate(194.188315, 151.614174)"><g><path d="M 0.484375 -4.875 C 0.484375 -5.882812 0.691406 -6.769531 1.109375 -7.53125 C 1.523438 -8.289062 2.101562 -8.875 2.84375 -9.28125 C 3.582031 -9.6875 4.425781 -9.890625 5.375 -9.890625 C 6.601562 -9.890625 7.625 -9.566406 8.4375 -8.921875 C 9.257812 -8.285156 9.800781 -7.382812 10.0625 -6.21875 L 6.875 -6.21875 C 6.613281 -6.96875 6.097656 -7.34375 5.328125 -7.34375 C 4.773438 -7.34375 4.335938 -7.128906 4.015625 -6.703125 C 3.691406 -6.273438 3.53125 -5.664062 3.53125 -4.875 C 3.53125 -4.082031 3.691406 -3.472656 4.015625 -3.046875 C 4.335938 -2.617188 4.773438 -2.40625 5.328125 -2.40625 C 6.097656 -2.40625 6.613281 -2.78125 6.875 -3.53125 L 10.0625 -3.53125 C 9.800781 -2.382812 9.257812 -1.484375 8.4375 -0.828125 C 7.613281 -0.179688 6.59375 0.140625 5.375 0.140625 C 4.425781 0.140625 3.582031 -0.0625 2.84375 -0.46875 C 2.101562 -0.875 1.523438 -1.457031 1.109375 -2.21875 C 0.691406 -2.976562 0.484375 -3.863281 0.484375 -4.875 Z M 0.484375 -4.875 "/></g></g></g><g fill="#ffffff" fill-opacity="1"><g transform="translate(204.753302, 151.614174)"><g/></g></g><g fill="#ffffff" fill-opacity="1"><g transform="translate(208.455412, 151.614174)"><g><path d="M 15.078125 -9.75 L 12.4375 0 L 9.140625 0 L 7.59375 -6.328125 L 6.015625 0 L 2.71875 0 L 0.0625 -9.75 L 3.0625 -9.75 L 4.4375 -2.78125 L 6.078125 -9.75 L 9.234375 -9.75 L 10.90625 -2.8125 L 12.265625 -9.75 Z M 15.078125 -9.75 "/></g></g></g><g fill="#ffffff" fill-opacity="1"><g transform="translate(223.578193, 151.614174)"><g><path d="M 10.265625 -5.03125 C 10.265625 -4.75 10.25 -4.457031 10.21875 -4.15625 L 3.453125 -4.15625 C 3.503906 -3.550781 3.703125 -3.085938 4.046875 -2.765625 C 4.390625 -2.441406 4.8125 -2.28125 5.3125 -2.28125 C 6.050781 -2.28125 6.566406 -2.597656 6.859375 -3.234375 L 10.046875 -3.234375 C 9.878906 -2.585938 9.582031 -2.007812 9.15625 -1.5 C 8.738281 -0.988281 8.207031 -0.585938 7.5625 -0.296875 C 6.925781 -0.00390625 6.210938 0.140625 5.421875 0.140625 C 4.460938 0.140625 3.609375 -0.0625 2.859375 -0.46875 C 2.117188 -0.875 1.535156 -1.457031 1.109375 -2.21875 C 0.691406 -2.976562 0.484375 -3.863281 0.484375 -4.875 C 0.484375 -5.882812 0.691406 -6.769531 1.109375 -7.53125 C 1.523438 -8.289062 2.101562 -8.875 2.84375 -9.28125 C 3.59375 -9.6875 4.453125 -9.890625 5.421875 -9.890625 C 6.359375 -9.890625 7.191406 -9.691406 7.921875 -9.296875 C 8.660156 -8.898438 9.234375 -8.332031 9.640625 -7.59375 C 10.054688 -6.863281 10.265625 -6.007812 10.265625 -5.03125 Z M 7.21875 -5.8125 C 7.21875 -6.320312 7.039062 -6.726562 6.6875 -7.03125 C 6.34375 -7.34375 5.90625 -7.5 5.375 -7.5 C 4.875 -7.5 4.453125 -7.351562 4.109375 -7.0625 C 3.765625 -6.769531 3.550781 -6.351562 3.46875 -5.8125 Z M 7.21875 -5.8125 "/></g></g></g><g fill="#ffffff" fill-opacity="1"><g transform="translate(234.335282, 151.614174)"><g><path d="M 4.0625 -8.375 C 4.34375 -8.820312 4.742188 -9.1875 5.265625 -9.46875 C 5.796875 -9.75 6.398438 -9.890625 7.078125 -9.890625 C 7.878906 -9.890625 8.601562 -9.6875 9.25 -9.28125 C 9.90625 -8.875 10.421875 -8.289062 10.796875 -7.53125 C 11.179688 -6.769531 11.375 -5.890625 11.375 -4.890625 C 11.375 -3.890625 11.179688 -3.003906 10.796875 -2.234375 C 10.421875 -1.472656 9.90625 -0.882812 9.25 -0.46875 C 8.601562 -0.0625 7.878906 0.140625 7.078125 0.140625 C 6.390625 0.140625 5.785156 0.00390625 5.265625 -0.265625 C 4.753906 -0.546875 4.351562 -0.910156 4.0625 -1.359375 L 4.0625 0 L 1.078125 0 L 1.078125 -12.921875 L 4.0625 -12.921875 Z M 8.328125 -4.890625 C 8.328125 -5.640625 8.117188 -6.222656 7.703125 -6.640625 C 7.296875 -7.066406 6.789062 -7.28125 6.1875 -7.28125 C 5.59375 -7.28125 5.085938 -7.0625 4.671875 -6.625 C 4.253906 -6.195312 4.046875 -5.613281 4.046875 -4.875 C 4.046875 -4.125 4.253906 -3.535156 4.671875 -3.109375 C 5.085938 -2.679688 5.59375 -2.46875 6.1875 -2.46875 C 6.78125 -2.46875 7.285156 -2.679688 7.703125 -3.109375 C 8.117188 -3.546875 8.328125 -4.140625 8.328125 -4.890625 Z M 8.328125 -4.890625 "/></g></g></g><g fill="#ffffff" fill-opacity="1"><g transform="translate(246.192515, 151.614174)"><g/></g></g><g fill="#ffffff" fill-opacity="1"><g transform="translate(249.894625, 151.614174)"><g><path d="M 0.484375 -4.890625 C 0.484375 -5.890625 0.671875 -6.769531 1.046875 -7.53125 C 1.429688 -8.289062 1.945312 -8.875 2.59375 -9.28125 C 3.25 -9.6875 3.976562 -9.890625 4.78125 -9.890625 C 5.425781 -9.890625 6.015625 -9.753906 6.546875 -9.484375 C 7.078125 -9.210938 7.492188 -8.851562 7.796875 -8.40625 L 7.796875 -12.921875 L 10.78125 -12.921875 L 10.78125 0 L 7.796875 0 L 7.796875 -1.390625 C 7.515625 -0.929688 7.113281 -0.5625 6.59375 -0.28125 C 6.070312 0 5.46875 0.140625 4.78125 0.140625 C 3.976562 0.140625 3.25 -0.0625 2.59375 -0.46875 C 1.945312 -0.882812 1.429688 -1.472656 1.046875 -2.234375 C 0.671875 -3.003906 0.484375 -3.890625 0.484375 -4.890625 Z M 7.796875 -4.875 C 7.796875 -5.613281 7.585938 -6.195312 7.171875 -6.625 C 6.753906 -7.0625 6.25 -7.28125 5.65625 -7.28125 C 5.0625 -7.28125 4.554688 -7.066406 4.140625 -6.640625 C 3.734375 -6.222656 3.53125 -5.640625 3.53125 -4.890625 C 3.53125 -4.140625 3.734375 -3.546875 4.140625 -3.109375 C 4.554688 -2.679688 5.0625 -2.46875 5.65625 -2.46875 C 6.25 -2.46875 6.753906 -2.679688 7.171875 -3.109375 C 7.585938 -3.535156 7.796875 -4.125 7.796875 -4.875 Z M 7.796875 -4.875 "/></g></g></g><g fill="#ffffff" fill-opacity="1"><g transform="translate(261.751858, 151.614174)"><g><path d="M 10.265625 -5.03125 C 10.265625 -4.75 10.25 -4.457031 10.21875 -4.15625 L 3.453125 -4.15625 C 3.503906 -3.550781 3.703125 -3.085938 4.046875 -2.765625 C 4.390625 -2.441406 4.8125 -2.28125 5.3125 -2.28125 C 6.050781 -2.28125 6.566406 -2.597656 6.859375 -3.234375 L 10.046875 -3.234375 C 9.878906 -2.585938 9.582031 -2.007812 9.15625 -1.5 C 8.738281 -0.988281 8.207031 -0.585938 7.5625 -0.296875 C 6.925781 -0.00390625 6.210938 0.140625 5.421875 0.140625 C 4.460938 0.140625 3.609375 -0.0625 2.859375 -0.46875 C 2.117188 -0.875 1.535156 -1.457031 1.109375 -2.21875 C 0.691406 -2.976562 0.484375 -3.863281 0.484375 -4.875 C 0.484375 -5.882812 0.691406 -6.769531 1.109375 -7.53125 C 1.523438 -8.289062 2.101562 -8.875 2.84375 -9.28125 C 3.59375 -9.6875 4.453125 -9.890625 5.421875 -9.890625 C 6.359375 -9.890625 7.191406 -9.691406 7.921875 -9.296875 C 8.660156 -8.898438 9.234375 -8.332031 9.640625 -7.59375 C 10.054688 -6.863281 10.265625 -6.007812 10.265625 -5.03125 Z M 7.21875 -5.8125 C 7.21875 -6.320312 7.039062 -6.726562 6.6875 -7.03125 C 6.34375 -7.34375 5.90625 -7.5 5.375 -7.5 C 4.875 -7.5 4.453125 -7.351562 4.109375 -7.0625 C 3.765625 -6.769531 3.550781 -6.351562 3.46875 -5.8125 Z M 7.21875 -5.8125 "/></g></g></g><g fill="#ffffff" fill-opacity="1"><g transform="translate(272.508935, 151.614174)"><g><path d="M 5.46875 -2.796875 L 7.578125 -9.75 L 10.765625 -9.75 L 7.296875 0 L 3.609375 0 L 0.15625 -9.75 L 3.359375 -9.75 Z M 5.46875 -2.796875 "/></g></g></g><g fill="#ffffff" fill-opacity="1"><g transform="translate(283.440652, 151.614174)"><g><path d="M 10.265625 -5.03125 C 10.265625 -4.75 10.25 -4.457031 10.21875 -4.15625 L 3.453125 -4.15625 C 3.503906 -3.550781 3.703125 -3.085938 4.046875 -2.765625 C 4.390625 -2.441406 4.8125 -2.28125 5.3125 -2.28125 C 6.050781 -2.28125 6.566406 -2.597656 6.859375 -3.234375 L 10.046875 -3.234375 C 9.878906 -2.585938 9.582031 -2.007812 9.15625 -1.5 C 8.738281 -0.988281 8.207031 -0.585938 7.5625 -0.296875 C 6.925781 -0.00390625 6.210938 0.140625 5.421875 0.140625 C 4.460938 0.140625 3.609375 -0.0625 2.859375 -0.46875 C 2.117188 -0.875 1.535156 -1.457031 1.109375 -2.21875 C 0.691406 -2.976562 0.484375 -3.863281 0.484375 -4.875 C 0.484375 -5.882812 0.691406 -6.769531 1.109375 -7.53125 C 1.523438 -8.289062 2.101562 -8.875 2.84375 -9.28125 C 3.59375 -9.6875 4.453125 -9.890625 5.421875 -9.890625 C 6.359375 -9.890625 7.191406 -9.691406 7.921875 -9.296875 C 8.660156 -8.898438 9.234375 -8.332031 9.640625 -7.59375 C 10.054688 -6.863281 10.265625 -6.007812 10.265625 -5.03125 Z M 7.21875 -5.8125 C 7.21875 -6.320312 7.039062 -6.726562 6.6875 -7.03125 C 6.34375 -7.34375 5.90625 -7.5 5.375 -7.5 C 4.875 -7.5 4.453125 -7.351562 4.109375 -7.0625 C 3.765625 -6.769531 3.550781 -6.351562 3.46875 -5.8125 Z M 7.21875 -5.8125 "/></g></g></g><g fill="#ffffff" fill-opacity="1"><g transform="translate(294.197729, 151.614174)"><g><path d="M 4.0625 -12.921875 L 4.0625 0 L 1.078125 0 L 1.078125 -12.921875 Z M 4.0625 -12.921875 "/></g></g></g><g fill="#ffffff" fill-opacity="1"><g transform="translate(299.349249, 151.614174)"><g><path d="M 5.515625 0.140625 C 4.566406 0.140625 3.707031 -0.0625 2.9375 -0.46875 C 2.175781 -0.875 1.578125 -1.457031 1.140625 -2.21875 C 0.703125 -2.976562 0.484375 -3.863281 0.484375 -4.875 C 0.484375 -5.875 0.703125 -6.753906 1.140625 -7.515625 C 1.585938 -8.285156 2.195312 -8.875 2.96875 -9.28125 C 3.738281 -9.6875 4.601562 -9.890625 5.5625 -9.890625 C 6.507812 -9.890625 7.367188 -9.6875 8.140625 -9.28125 C 8.910156 -8.875 9.515625 -8.285156 9.953125 -7.515625 C 10.398438 -6.753906 10.625 -5.875 10.625 -4.875 C 10.625 -3.875 10.398438 -2.988281 9.953125 -2.21875 C 9.503906 -1.457031 8.890625 -0.875 8.109375 -0.46875 C 7.335938 -0.0625 6.472656 0.140625 5.515625 0.140625 Z M 5.515625 -2.453125 C 6.085938 -2.453125 6.570312 -2.660156 6.96875 -3.078125 C 7.375 -3.492188 7.578125 -4.09375 7.578125 -4.875 C 7.578125 -5.65625 7.378906 -6.253906 6.984375 -6.671875 C 6.597656 -7.085938 6.125 -7.296875 5.5625 -7.296875 C 4.976562 -7.296875 4.492188 -7.085938 4.109375 -6.671875 C 3.722656 -6.265625 3.53125 -5.664062 3.53125 -4.875 C 3.53125 -4.09375 3.71875 -3.492188 4.09375 -3.078125 C 4.476562 -2.660156 4.953125 -2.453125 5.515625 -2.453125 Z M 5.515625 -2.453125 "/></g></g></g><g fill="#ffffff" fill-opacity="1"><g transform="translate(310.473045, 151.614174)"><g><path d="M 4.0625 -8.375 C 4.351562 -8.820312 4.753906 -9.1875 5.265625 -9.46875 C 5.785156 -9.75 6.390625 -9.890625 7.078125 -9.890625 C 7.878906 -9.890625 8.601562 -9.6875 9.25 -9.28125 C 9.90625 -8.875 10.421875 -8.289062 10.796875 -7.53125 C 11.179688 -6.769531 11.375 -5.890625 11.375 -4.890625 C 11.375 -3.890625 11.179688 -3.003906 10.796875 -2.234375 C 10.421875 -1.472656 9.90625 -0.882812 9.25 -0.46875 C 8.601562 -0.0625 7.878906 0.140625 7.078125 0.140625 C 6.398438 0.140625 5.800781 0 5.28125 -0.28125 C 4.757812 -0.5625 4.351562 -0.921875 4.0625 -1.359375 L 4.0625 4.640625 L 1.078125 4.640625 L 1.078125 -9.75 L 4.0625 -9.75 Z M 8.328125 -4.890625 C 8.328125 -5.640625 8.117188 -6.222656 7.703125 -6.640625 C 7.296875 -7.066406 6.789062 -7.28125 6.1875 -7.28125 C 5.59375 -7.28125 5.085938 -7.0625 4.671875 -6.625 C 4.253906 -6.195312 4.046875 -5.613281 4.046875 -4.875 C 4.046875 -4.125 4.253906 -3.535156 4.671875 -3.109375 C 5.085938 -2.679688 5.59375 -2.46875 6.1875 -2.46875 C 6.78125 -2.46875 7.285156 -2.679688 7.703125 -3.109375 C 8.117188 -3.546875 8.328125 -4.140625 8.328125 -4.890625 Z M 8.328125 -4.890625 "/></g></g></g><g fill="#ffffff" fill-opacity="1"><g transform="translate(322.330277, 151.614174)"><g><path d="M 13.515625 -9.859375 C 14.734375 -9.859375 15.695312 -9.488281 16.40625 -8.75 C 17.125 -8.019531 17.484375 -7 17.484375 -5.6875 L 17.484375 0 L 14.515625 0 L 14.515625 -5.296875 C 14.515625 -5.921875 14.347656 -6.40625 14.015625 -6.75 C 13.679688 -7.09375 13.222656 -7.265625 12.640625 -7.265625 C 12.066406 -7.265625 11.613281 -7.09375 11.28125 -6.75 C 10.945312 -6.40625 10.78125 -5.921875 10.78125 -5.296875 L 10.78125 0 L 7.8125 0 L 7.8125 -5.296875 C 7.8125 -5.921875 7.644531 -6.40625 7.3125 -6.75 C 6.976562 -7.09375 6.519531 -7.265625 5.9375 -7.265625 C 5.351562 -7.265625 4.894531 -7.09375 4.5625 -6.75 C 4.226562 -6.40625 4.0625 -5.921875 4.0625 -5.296875 L 4.0625 0 L 1.078125 0 L 1.078125 -9.75 L 4.0625 -9.75 L 4.0625 -8.53125 C 4.375 -8.9375 4.769531 -9.257812 5.25 -9.5 C 5.738281 -9.738281 6.296875 -9.859375 6.921875 -9.859375 C 7.648438 -9.859375 8.300781 -9.695312 8.875 -9.375 C 9.457031 -9.0625 9.910156 -8.613281 10.234375 -8.03125 C 10.578125 -8.570312 11.035156 -9.007812 11.609375 -9.34375 C 12.191406 -9.6875 12.828125 -9.859375 13.515625 -9.859375 Z M 13.515625 -9.859375 "/></g></g></g><g fill="#ffffff" fill-opacity="1"><g transform="translate(340.82339, 151.614174)"><g><path d="M 10.265625 -5.03125 C 10.265625 -4.75 10.25 -4.457031 10.21875 -4.15625 L 3.453125 -4.15625 C 3.503906 -3.550781 3.703125 -3.085938 4.046875 -2.765625 C 4.390625 -2.441406 4.8125 -2.28125 5.3125 -2.28125 C 6.050781 -2.28125 6.566406 -2.597656 6.859375 -3.234375 L 10.046875 -3.234375 C 9.878906 -2.585938 9.582031 -2.007812 9.15625 -1.5 C 8.738281 -0.988281 8.207031 -0.585938 7.5625 -0.296875 C 6.925781 -0.00390625 6.210938 0.140625 5.421875 0.140625 C 4.460938 0.140625 3.609375 -0.0625 2.859375 -0.46875 C 2.117188 -0.875 1.535156 -1.457031 1.109375 -2.21875 C 0.691406 -2.976562 0.484375 -3.863281 0.484375 -4.875 C 0.484375 -5.882812 0.691406 -6.769531 1.109375 -7.53125 C 1.523438 -8.289062 2.101562 -8.875 2.84375 -9.28125 C 3.59375 -9.6875 4.453125 -9.890625 5.421875 -9.890625 C 6.359375 -9.890625 7.191406 -9.691406 7.921875 -9.296875 C 8.660156 -8.898438 9.234375 -8.332031 9.640625 -7.59375 C 10.054688 -6.863281 10.265625 -6.007812 10.265625 -5.03125 Z M 7.21875 -5.8125 C 7.21875 -6.320312 7.039062 -6.726562 6.6875 -7.03125 C 6.34375 -7.34375 5.90625 -7.5 5.375 -7.5 C 4.875 -7.5 4.453125 -7.351562 4.109375 -7.0625 C 3.765625 -6.769531 3.550781 -6.351562 3.46875 -5.8125 Z M 7.21875 -5.8125 "/></g></g></g><g fill="#ffffff" fill-opacity="1"><g transform="translate(351.580467, 151.614174)"><g><path d="M 7.015625 -9.859375 C 8.160156 -9.859375 9.070312 -9.488281 9.75 -8.75 C 10.4375 -8.007812 10.78125 -6.988281 10.78125 -5.6875 L 10.78125 0 L 7.8125 0 L 7.8125 -5.296875 C 7.8125 -5.941406 7.640625 -6.445312 7.296875 -6.8125 C 6.960938 -7.175781 6.507812 -7.359375 5.9375 -7.359375 C 5.363281 -7.359375 4.90625 -7.175781 4.5625 -6.8125 C 4.226562 -6.445312 4.0625 -5.941406 4.0625 -5.296875 L 4.0625 0 L 1.078125 0 L 1.078125 -9.75 L 4.0625 -9.75 L 4.0625 -8.453125 C 4.375 -8.878906 4.785156 -9.21875 5.296875 -9.46875 C 5.804688 -9.726562 6.378906 -9.859375 7.015625 -9.859375 Z M 7.015625 -9.859375 "/></g></g></g><g fill="#ffffff" fill-opacity="1"><g transform="translate(363.350403, 151.614174)"><g><path d="M 6.515625 -2.53125 L 6.515625 0 L 5 0 C 3.914062 0 3.070312 -0.265625 2.46875 -0.796875 C 1.863281 -1.328125 1.5625 -2.191406 1.5625 -3.390625 L 1.5625 -7.265625 L 0.359375 -7.265625 L 0.359375 -9.75 L 1.5625 -9.75 L 1.5625 -12.125 L 4.546875 -12.125 L 4.546875 -9.75 L 6.5 -9.75 L 6.5 -7.265625 L 4.546875 -7.265625 L 4.546875 -3.359375 C 4.546875 -3.066406 4.613281 -2.851562 4.75 -2.71875 C 4.894531 -2.59375 5.128906 -2.53125 5.453125 -2.53125 Z M 6.515625 -2.53125 "/></g></g></g><g fill="#ffffff" fill-opacity="1"><g transform="translate(370.440298, 151.614174)"><g><path d="M 4.296875 -2.765625 L 2.359375 2.25 L 0.453125 2.25 L 1.46875 -2.765625 Z M 4.296875 -2.765625 "/></g></g></g><g fill="#ffffff" fill-opacity="1"><g transform="translate(375.45213, 151.614174)"><g/></g></g><g fill="#ffffff" fill-opacity="1"><g transform="translate(379.15424, 151.614174)"><g><path d="M 0.484375 -4.890625 C 0.484375 -5.890625 0.671875 -6.769531 1.046875 -7.53125 C 1.429688 -8.289062 1.945312 -8.875 2.59375 -9.28125 C 3.25 -9.6875 3.976562 -9.890625 4.78125 -9.890625 C 5.46875 -9.890625 6.070312 -9.75 6.59375 -9.46875 C 7.113281 -9.1875 7.515625 -8.820312 7.796875 -8.375 L 7.796875 -9.75 L 10.78125 -9.75 L 10.78125 0 L 7.796875 0 L 7.796875 -1.375 C 7.503906 -0.925781 7.097656 -0.5625 6.578125 -0.28125 C 6.054688 0 5.453125 0.140625 4.765625 0.140625 C 3.972656 0.140625 3.25 -0.0625 2.59375 -0.46875 C 1.945312 -0.882812 1.429688 -1.472656 1.046875 -2.234375 C 0.671875 -3.003906 0.484375 -3.890625 0.484375 -4.890625 Z M 7.796875 -4.875 C 7.796875 -5.613281 7.585938 -6.195312 7.171875 -6.625 C 6.753906 -7.0625 6.25 -7.28125 5.65625 -7.28125 C 5.0625 -7.28125 4.554688 -7.066406 4.140625 -6.640625 C 3.734375 -6.222656 3.53125 -5.640625 3.53125 -4.890625 C 3.53125 -4.140625 3.734375 -3.546875 4.140625 -3.109375 C 4.554688 -2.679688 5.0625 -2.46875 5.65625 -2.46875 C 6.25 -2.46875 6.753906 -2.679688 7.171875 -3.109375 C 7.585938 -3.535156 7.796875 -4.125 7.796875 -4.875 Z M 7.796875 -4.875 "/></g></g></g><g fill="#ffffff" fill-opacity="1"><g transform="translate(391.011473, 151.614174)"><g><path d="M 7.015625 -9.859375 C 8.160156 -9.859375 9.070312 -9.488281 9.75 -8.75 C 10.4375 -8.007812 10.78125 -6.988281 10.78125 -5.6875 L 10.78125 0 L 7.8125 0 L 7.8125 -5.296875 C 7.8125 -5.941406 7.640625 -6.445312 7.296875 -6.8125 C 6.960938 -7.175781 6.507812 -7.359375 5.9375 -7.359375 C 5.363281 -7.359375 4.90625 -7.175781 4.5625 -6.8125 C 4.226562 -6.445312 4.0625 -5.941406 4.0625 -5.296875 L 4.0625 0 L 1.078125 0 L 1.078125 -9.75 L 4.0625 -9.75 L 4.0625 -8.453125 C 4.375 -8.878906 4.785156 -9.21875 5.296875 -9.46875 C 5.804688 -9.726562 6.378906 -9.859375 7.015625 -9.859375 Z M 7.015625 -9.859375 "/></g></g></g><g fill="#ffffff" fill-opacity="1"><g transform="translate(402.781386, 151.614174)"><g><path d="M 0.484375 -4.890625 C 0.484375 -5.890625 0.671875 -6.769531 1.046875 -7.53125 C 1.429688 -8.289062 1.945312 -8.875 2.59375 -9.28125 C 3.25 -9.6875 3.976562 -9.890625 4.78125 -9.890625 C 5.425781 -9.890625 6.015625 -9.753906 6.546875 -9.484375 C 7.078125 -9.210938 7.492188 -8.851562 7.796875 -8.40625 L 7.796875 -12.921875 L 10.78125 -12.921875 L 10.78125 0 L 7.796875 0 L 7.796875 -1.390625 C 7.515625 -0.929688 7.113281 -0.5625 6.59375 -0.28125 C 6.070312 0 5.46875 0.140625 4.78125 0.140625 C 3.976562 0.140625 3.25 -0.0625 2.59375 -0.46875 C 1.945312 -0.882812 1.429688 -1.472656 1.046875 -2.234375 C 0.671875 -3.003906 0.484375 -3.890625 0.484375 -4.890625 Z M 7.796875 -4.875 C 7.796875 -5.613281 7.585938 -6.195312 7.171875 -6.625 C 6.753906 -7.0625 6.25 -7.28125 5.65625 -7.28125 C 5.0625 -7.28125 4.554688 -7.066406 4.140625 -6.640625 C 3.734375 -6.222656 3.53125 -5.640625 3.53125 -4.890625 C 3.53125 -4.140625 3.734375 -3.546875 4.140625 -3.109375 C 4.554688 -2.679688 5.0625 -2.46875 5.65625 -2.46875 C 6.25 -2.46875 6.753906 -2.679688 7.171875 -3.109375 C 7.585938 -3.535156 7.796875 -4.125 7.796875 -4.875 Z M 7.796875 -4.875 "/></g></g></g><g fill="#ffffff" fill-opacity="1"><g transform="translate(38.699633, 175.520422)"><g><path d="M 4.0625 -12.921875 L 4.0625 0 L 1.078125 0 L 1.078125 -12.921875 Z M 4.0625 -12.921875 "/></g></g></g><g fill="#ffffff" fill-opacity="1"><g transform="translate(43.851153, 175.520422)"><g><path d="M 10.265625 -5.03125 C 10.265625 -4.75 10.25 -4.457031 10.21875 -4.15625 L 3.453125 -4.15625 C 3.503906 -3.550781 3.703125 -3.085938 4.046875 -2.765625 C 4.390625 -2.441406 4.8125 -2.28125 5.3125 -2.28125 C 6.050781 -2.28125 6.566406 -2.597656 6.859375 -3.234375 L 10.046875 -3.234375 C 9.878906 -2.585938 9.582031 -2.007812 9.15625 -1.5 C 8.738281 -0.988281 8.207031 -0.585938 7.5625 -0.296875 C 6.925781 -0.00390625 6.210938 0.140625 5.421875 0.140625 C 4.460938 0.140625 3.609375 -0.0625 2.859375 -0.46875 C 2.117188 -0.875 1.535156 -1.457031 1.109375 -2.21875 C 0.691406 -2.976562 0.484375 -3.863281 0.484375 -4.875 C 0.484375 -5.882812 0.691406 -6.769531 1.109375 -7.53125 C 1.523438 -8.289062 2.101562 -8.875 2.84375 -9.28125 C 3.59375 -9.6875 4.453125 -9.890625 5.421875 -9.890625 C 6.359375 -9.890625 7.191406 -9.691406 7.921875 -9.296875 C 8.660156 -8.898438 9.234375 -8.332031 9.640625 -7.59375 C 10.054688 -6.863281 10.265625 -6.007812 10.265625 -5.03125 Z M 7.21875 -5.8125 C 7.21875 -6.320312 7.039062 -6.726562 6.6875 -7.03125 C 6.34375 -7.34375 5.90625 -7.5 5.375 -7.5 C 4.875 -7.5 4.453125 -7.351562 4.109375 -7.0625 C 3.765625 -6.769531 3.550781 -6.351562 3.46875 -5.8125 Z M 7.21875 -5.8125 "/></g></g></g><g fill="#ffffff" fill-opacity="1"><g transform="translate(54.608231, 175.520422)"><g><path d="M 0.484375 -4.890625 C 0.484375 -5.890625 0.671875 -6.769531 1.046875 -7.53125 C 1.429688 -8.289062 1.945312 -8.875 2.59375 -9.28125 C 3.25 -9.6875 3.976562 -9.890625 4.78125 -9.890625 C 5.46875 -9.890625 6.070312 -9.75 6.59375 -9.46875 C 7.113281 -9.1875 7.515625 -8.820312 7.796875 -8.375 L 7.796875 -9.75 L 10.78125 -9.75 L 10.78125 0 L 7.796875 0 L 7.796875 -1.375 C 7.503906 -0.925781 7.097656 -0.5625 6.578125 -0.28125 C 6.054688 0 5.453125 0.140625 4.765625 0.140625 C 3.972656 0.140625 3.25 -0.0625 2.59375 -0.46875 C 1.945312 -0.882812 1.429688 -1.472656 1.046875 -2.234375 C 0.671875 -3.003906 0.484375 -3.890625 0.484375 -4.890625 Z M 7.796875 -4.875 C 7.796875 -5.613281 7.585938 -6.195312 7.171875 -6.625 C 6.753906 -7.0625 6.25 -7.28125 5.65625 -7.28125 C 5.0625 -7.28125 4.554688 -7.066406 4.140625 -6.640625 C 3.734375 -6.222656 3.53125 -5.640625 3.53125 -4.890625 C 3.53125 -4.140625 3.734375 -3.546875 4.140625 -3.109375 C 4.554688 -2.679688 5.0625 -2.46875 5.65625 -2.46875 C 6.25 -2.46875 6.753906 -2.679688 7.171875 -3.109375 C 7.585938 -3.535156 7.796875 -4.125 7.796875 -4.875 Z M 7.796875 -4.875 "/></g></g></g><g fill="#ffffff" fill-opacity="1"><g transform="translate(66.465463, 175.520422)"><g><path d="M 4.0625 -8.125 C 4.414062 -8.65625 4.851562 -9.078125 5.375 -9.390625 C 5.90625 -9.703125 6.488281 -9.859375 7.125 -9.859375 L 7.125 -6.6875 L 6.3125 -6.6875 C 5.5625 -6.6875 5 -6.523438 4.625 -6.203125 C 4.25 -5.890625 4.0625 -5.332031 4.0625 -4.53125 L 4.0625 0 L 1.078125 0 L 1.078125 -9.75 L 4.0625 -9.75 Z M 4.0625 -8.125 "/></g></g></g><g fill="#ffffff" fill-opacity="1"><g transform="translate(73.93954, 175.520422)"><g><path d="M 7.015625 -9.859375 C 8.160156 -9.859375 9.070312 -9.488281 9.75 -8.75 C 10.4375 -8.007812 10.78125 -6.988281 10.78125 -5.6875 L 10.78125 0 L 7.8125 0 L 7.8125 -5.296875 C 7.8125 -5.941406 7.640625 -6.445312 7.296875 -6.8125 C 6.960938 -7.175781 6.507812 -7.359375 5.9375 -7.359375 C 5.363281 -7.359375 4.90625 -7.175781 4.5625 -6.8125 C 4.226562 -6.445312 4.0625 -5.941406 4.0625 -5.296875 L 4.0625 0 L 1.078125 0 L 1.078125 -9.75 L 4.0625 -9.75 L 4.0625 -8.453125 C 4.375 -8.878906 4.785156 -9.21875 5.296875 -9.46875 C 5.804688 -9.726562 6.378906 -9.859375 7.015625 -9.859375 Z M 7.015625 -9.859375 "/></g></g></g><g fill="#ffffff" fill-opacity="1"><g transform="translate(85.709465, 175.520422)"><g/></g></g><g fill="#ffffff" fill-opacity="1"><g transform="translate(89.411575, 175.520422)"><g><path d="M 4.0625 -8.375 C 4.34375 -8.820312 4.742188 -9.1875 5.265625 -9.46875 C 5.796875 -9.75 6.398438 -9.890625 7.078125 -9.890625 C 7.878906 -9.890625 8.601562 -9.6875 9.25 -9.28125 C 9.90625 -8.875 10.421875 -8.289062 10.796875 -7.53125 C 11.179688 -6.769531 11.375 -5.890625 11.375 -4.890625 C 11.375 -3.890625 11.179688 -3.003906 10.796875 -2.234375 C 10.421875 -1.472656 9.90625 -0.882812 9.25 -0.46875 C 8.601562 -0.0625 7.878906 0.140625 7.078125 0.140625 C 6.390625 0.140625 5.785156 0.00390625 5.265625 -0.265625 C 4.753906 -0.546875 4.351562 -0.910156 4.0625 -1.359375 L 4.0625 0 L 1.078125 0 L 1.078125 -12.921875 L 4.0625 -12.921875 Z M 8.328125 -4.890625 C 8.328125 -5.640625 8.117188 -6.222656 7.703125 -6.640625 C 7.296875 -7.066406 6.789062 -7.28125 6.1875 -7.28125 C 5.59375 -7.28125 5.085938 -7.0625 4.671875 -6.625 C 4.253906 -6.195312 4.046875 -5.613281 4.046875 -4.875 C 4.046875 -4.125 4.253906 -3.535156 4.671875 -3.109375 C 5.085938 -2.679688 5.59375 -2.46875 6.1875 -2.46875 C 6.78125 -2.46875 7.285156 -2.679688 7.703125 -3.109375 C 8.117188 -3.546875 8.328125 -4.140625 8.328125 -4.890625 Z M 8.328125 -4.890625 "/></g></g></g><g fill="#ffffff" fill-opacity="1"><g transform="translate(101.268808, 175.520422)"><g><path d="M 0.484375 -4.890625 C 0.484375 -5.890625 0.671875 -6.769531 1.046875 -7.53125 C 1.429688 -8.289062 1.945312 -8.875 2.59375 -9.28125 C 3.25 -9.6875 3.976562 -9.890625 4.78125 -9.890625 C 5.46875 -9.890625 6.070312 -9.75 6.59375 -9.46875 C 7.113281 -9.1875 7.515625 -8.820312 7.796875 -8.375 L 7.796875 -9.75 L 10.78125 -9.75 L 10.78125 0 L 7.796875 0 L 7.796875 -1.375 C 7.503906 -0.925781 7.097656 -0.5625 6.578125 -0.28125 C 6.054688 0 5.453125 0.140625 4.765625 0.140625 C 3.972656 0.140625 3.25 -0.0625 2.59375 -0.46875 C 1.945312 -0.882812 1.429688 -1.472656 1.046875 -2.234375 C 0.671875 -3.003906 0.484375 -3.890625 0.484375 -4.890625 Z M 7.796875 -4.875 C 7.796875 -5.613281 7.585938 -6.195312 7.171875 -6.625 C 6.753906 -7.0625 6.25 -7.28125 5.65625 -7.28125 C 5.0625 -7.28125 4.554688 -7.066406 4.140625 -6.640625 C 3.734375 -6.222656 3.53125 -5.640625 3.53125 -4.890625 C 3.53125 -4.140625 3.734375 -3.546875 4.140625 -3.109375 C 4.554688 -2.679688 5.0625 -2.46875 5.65625 -2.46875 C 6.25 -2.46875 6.753906 -2.679688 7.171875 -3.109375 C 7.585938 -3.535156 7.796875 -4.125 7.796875 -4.875 Z M 7.796875 -4.875 "/></g></g></g><g fill="#ffffff" fill-opacity="1"><g transform="translate(113.12604, 175.520422)"><g><path d="M 5.046875 0.140625 C 4.191406 0.140625 3.429688 -0.00390625 2.765625 -0.296875 C 2.109375 -0.585938 1.585938 -0.984375 1.203125 -1.484375 C 0.816406 -1.992188 0.601562 -2.566406 0.5625 -3.203125 L 3.515625 -3.203125 C 3.546875 -2.859375 3.703125 -2.582031 3.984375 -2.375 C 4.265625 -2.164062 4.609375 -2.0625 5.015625 -2.0625 C 5.390625 -2.0625 5.675781 -2.132812 5.875 -2.28125 C 6.082031 -2.425781 6.1875 -2.613281 6.1875 -2.84375 C 6.1875 -3.125 6.039062 -3.332031 5.75 -3.46875 C 5.457031 -3.601562 4.984375 -3.75 4.328125 -3.90625 C 3.628906 -4.070312 3.046875 -4.242188 2.578125 -4.421875 C 2.117188 -4.609375 1.71875 -4.894531 1.375 -5.28125 C 1.039062 -5.675781 0.875 -6.203125 0.875 -6.859375 C 0.875 -7.421875 1.023438 -7.929688 1.328125 -8.390625 C 1.640625 -8.847656 2.09375 -9.210938 2.6875 -9.484375 C 3.289062 -9.753906 4.007812 -9.890625 4.84375 -9.890625 C 6.0625 -9.890625 7.019531 -9.585938 7.71875 -8.984375 C 8.425781 -8.378906 8.832031 -7.570312 8.9375 -6.5625 L 6.1875 -6.5625 C 6.132812 -6.90625 5.984375 -7.175781 5.734375 -7.375 C 5.484375 -7.570312 5.15625 -7.671875 4.75 -7.671875 C 4.40625 -7.671875 4.140625 -7.601562 3.953125 -7.46875 C 3.765625 -7.332031 3.671875 -7.148438 3.671875 -6.921875 C 3.671875 -6.640625 3.816406 -6.425781 4.109375 -6.28125 C 4.410156 -6.144531 4.875 -6.007812 5.5 -5.875 C 6.21875 -5.6875 6.804688 -5.5 7.265625 -5.3125 C 7.722656 -5.132812 8.125 -4.84375 8.46875 -4.4375 C 8.8125 -4.039062 8.988281 -3.503906 9 -2.828125 C 9 -2.253906 8.835938 -1.742188 8.515625 -1.296875 C 8.191406 -0.847656 7.726562 -0.492188 7.125 -0.234375 C 6.53125 0.015625 5.835938 0.140625 5.046875 0.140625 Z M 5.046875 0.140625 "/></g></g></g><g fill="#ffffff" fill-opacity="1"><g transform="translate(122.870282, 175.520422)"><g><path d="M 2.578125 -10.765625 C 2.054688 -10.765625 1.628906 -10.914062 1.296875 -11.21875 C 0.960938 -11.53125 0.796875 -11.914062 0.796875 -12.375 C 0.796875 -12.832031 0.960938 -13.21875 1.296875 -13.53125 C 1.628906 -13.84375 2.054688 -14 2.578125 -14 C 3.097656 -14 3.519531 -13.84375 3.84375 -13.53125 C 4.175781 -13.21875 4.34375 -12.832031 4.34375 -12.375 C 4.34375 -11.914062 4.175781 -11.53125 3.84375 -11.21875 C 3.519531 -10.914062 3.097656 -10.765625 2.578125 -10.765625 Z M 4.0625 -9.75 L 4.0625 0 L 1.078125 0 L 1.078125 -9.75 Z M 4.0625 -9.75 "/></g></g></g><g fill="#ffffff" fill-opacity="1"><g transform="translate(128.021802, 175.520422)"><g><path d="M 0.484375 -4.875 C 0.484375 -5.882812 0.691406 -6.769531 1.109375 -7.53125 C 1.523438 -8.289062 2.101562 -8.875 2.84375 -9.28125 C 3.582031 -9.6875 4.425781 -9.890625 5.375 -9.890625 C 6.601562 -9.890625 7.625 -9.566406 8.4375 -8.921875 C 9.257812 -8.285156 9.800781 -7.382812 10.0625 -6.21875 L 6.875 -6.21875 C 6.613281 -6.96875 6.097656 -7.34375 5.328125 -7.34375 C 4.773438 -7.34375 4.335938 -7.128906 4.015625 -6.703125 C 3.691406 -6.273438 3.53125 -5.664062 3.53125 -4.875 C 3.53125 -4.082031 3.691406 -3.472656 4.015625 -3.046875 C 4.335938 -2.617188 4.773438 -2.40625 5.328125 -2.40625 C 6.097656 -2.40625 6.613281 -2.78125 6.875 -3.53125 L 10.0625 -3.53125 C 9.800781 -2.382812 9.257812 -1.484375 8.4375 -0.828125 C 7.613281 -0.179688 6.59375 0.140625 5.375 0.140625 C 4.425781 0.140625 3.582031 -0.0625 2.84375 -0.46875 C 2.101562 -0.875 1.523438 -1.457031 1.109375 -2.21875 C 0.691406 -2.976562 0.484375 -3.863281 0.484375 -4.875 Z M 0.484375 -4.875 "/></g></g></g><g fill="#ffffff" fill-opacity="1"><g transform="translate(138.586789, 175.520422)"><g/></g></g><g fill="#ffffff" fill-opacity="1"><g transform="translate(142.288899, 175.520422)"><g><path d="M 4.0625 -8.375 C 4.351562 -8.820312 4.753906 -9.1875 5.265625 -9.46875 C 5.785156 -9.75 6.390625 -9.890625 7.078125 -9.890625 C 7.878906 -9.890625 8.601562 -9.6875 9.25 -9.28125 C 9.90625 -8.875 10.421875 -8.289062 10.796875 -7.53125 C 11.179688 -6.769531 11.375 -5.890625 11.375 -4.890625 C 11.375 -3.890625 11.179688 -3.003906 10.796875 -2.234375 C 10.421875 -1.472656 9.90625 -0.882812 9.25 -0.46875 C 8.601562 -0.0625 7.878906 0.140625 7.078125 0.140625 C 6.398438 0.140625 5.800781 0 5.28125 -0.28125 C 4.757812 -0.5625 4.351562 -0.921875 4.0625 -1.359375 L 4.0625 4.640625 L 1.078125 4.640625 L 1.078125 -9.75 L 4.0625 -9.75 Z M 8.328125 -4.890625 C 8.328125 -5.640625 8.117188 -6.222656 7.703125 -6.640625 C 7.296875 -7.066406 6.789062 -7.28125 6.1875 -7.28125 C 5.59375 -7.28125 5.085938 -7.0625 4.671875 -6.625 C 4.253906 -6.195312 4.046875 -5.613281 4.046875 -4.875 C 4.046875 -4.125 4.253906 -3.535156 4.671875 -3.109375 C 5.085938 -2.679688 5.59375 -2.46875 6.1875 -2.46875 C 6.78125 -2.46875 7.285156 -2.679688 7.703125 -3.109375 C 8.117188 -3.546875 8.328125 -4.140625 8.328125 -4.890625 Z M 8.328125 -4.890625 "/></g></g></g><g fill="#ffffff" fill-opacity="1"><g transform="translate(154.146132, 175.520422)"><g><path d="M 4.0625 -8.125 C 4.414062 -8.65625 4.851562 -9.078125 5.375 -9.390625 C 5.90625 -9.703125 6.488281 -9.859375 7.125 -9.859375 L 7.125 -6.6875 L 6.3125 -6.6875 C 5.5625 -6.6875 5 -6.523438 4.625 -6.203125 C 4.25 -5.890625 4.0625 -5.332031 4.0625 -4.53125 L 4.0625 0 L 1.078125 0 L 1.078125 -9.75 L 4.0625 -9.75 Z M 4.0625 -8.125 "/></g></g></g><g fill="#ffffff" fill-opacity="1"><g transform="translate(161.620208, 175.520422)"><g><path d="M 5.515625 0.140625 C 4.566406 0.140625 3.707031 -0.0625 2.9375 -0.46875 C 2.175781 -0.875 1.578125 -1.457031 1.140625 -2.21875 C 0.703125 -2.976562 0.484375 -3.863281 0.484375 -4.875 C 0.484375 -5.875 0.703125 -6.753906 1.140625 -7.515625 C 1.585938 -8.285156 2.195312 -8.875 2.96875 -9.28125 C 3.738281 -9.6875 4.601562 -9.890625 5.5625 -9.890625 C 6.507812 -9.890625 7.367188 -9.6875 8.140625 -9.28125 C 8.910156 -8.875 9.515625 -8.285156 9.953125 -7.515625 C 10.398438 -6.753906 10.625 -5.875 10.625 -4.875 C 10.625 -3.875 10.398438 -2.988281 9.953125 -2.21875 C 9.503906 -1.457031 8.890625 -0.875 8.109375 -0.46875 C 7.335938 -0.0625 6.472656 0.140625 5.515625 0.140625 Z M 5.515625 -2.453125 C 6.085938 -2.453125 6.570312 -2.660156 6.96875 -3.078125 C 7.375 -3.492188 7.578125 -4.09375 7.578125 -4.875 C 7.578125 -5.65625 7.378906 -6.253906 6.984375 -6.671875 C 6.597656 -7.085938 6.125 -7.296875 5.5625 -7.296875 C 4.976562 -7.296875 4.492188 -7.085938 4.109375 -6.671875 C 3.722656 -6.265625 3.53125 -5.664062 3.53125 -4.875 C 3.53125 -4.09375 3.71875 -3.492188 4.09375 -3.078125 C 4.476562 -2.660156 4.953125 -2.453125 5.515625 -2.453125 Z M 5.515625 -2.453125 "/></g></g></g><g fill="#ffffff" fill-opacity="1"><g transform="translate(172.744004, 175.520422)"><g><path d="M 4.78125 -9.890625 C 5.46875 -9.890625 6.070312 -9.75 6.59375 -9.46875 C 7.113281 -9.1875 7.515625 -8.820312 7.796875 -8.375 L 7.796875 -9.75 L 10.78125 -9.75 L 10.78125 -0.015625 C 10.78125 0.878906 10.601562 1.691406 10.25 2.421875 C 9.894531 3.148438 9.351562 3.726562 8.625 4.15625 C 7.894531 4.582031 6.988281 4.796875 5.90625 4.796875 C 4.457031 4.796875 3.285156 4.457031 2.390625 3.78125 C 1.492188 3.101562 0.984375 2.179688 0.859375 1.015625 L 3.8125 1.015625 C 3.90625 1.390625 4.125 1.679688 4.46875 1.890625 C 4.820312 2.109375 5.253906 2.21875 5.765625 2.21875 C 6.378906 2.21875 6.867188 2.039062 7.234375 1.6875 C 7.609375 1.332031 7.796875 0.765625 7.796875 -0.015625 L 7.796875 -1.390625 C 7.503906 -0.941406 7.097656 -0.570312 6.578125 -0.28125 C 6.066406 0 5.46875 0.140625 4.78125 0.140625 C 3.976562 0.140625 3.25 -0.0625 2.59375 -0.46875 C 1.945312 -0.882812 1.429688 -1.472656 1.046875 -2.234375 C 0.671875 -3.003906 0.484375 -3.890625 0.484375 -4.890625 C 0.484375 -5.890625 0.671875 -6.769531 1.046875 -7.53125 C 1.429688 -8.289062 1.945312 -8.875 2.59375 -9.28125 C 3.25 -9.6875 3.976562 -9.890625 4.78125 -9.890625 Z M 7.796875 -4.875 C 7.796875 -5.613281 7.585938 -6.195312 7.171875 -6.625 C 6.753906 -7.0625 6.25 -7.28125 5.65625 -7.28125 C 5.0625 -7.28125 4.554688 -7.066406 4.140625 -6.640625 C 3.734375 -6.222656 3.53125 -5.640625 3.53125 -4.890625 C 3.53125 -4.140625 3.734375 -3.546875 4.140625 -3.109375 C 4.554688 -2.679688 5.0625 -2.46875 5.65625 -2.46875 C 6.25 -2.46875 6.753906 -2.679688 7.171875 -3.109375 C 7.585938 -3.535156 7.796875 -4.125 7.796875 -4.875 Z M 7.796875 -4.875 "/></g></g></g><g fill="#ffffff" fill-opacity="1"><g transform="translate(184.601237, 175.520422)"><g><path d="M 4.0625 -8.125 C 4.414062 -8.65625 4.851562 -9.078125 5.375 -9.390625 C 5.90625 -9.703125 6.488281 -9.859375 7.125 -9.859375 L 7.125 -6.6875 L 6.3125 -6.6875 C 5.5625 -6.6875 5 -6.523438 4.625 -6.203125 C 4.25 -5.890625 4.0625 -5.332031 4.0625 -4.53125 L 4.0625 0 L 1.078125 0 L 1.078125 -9.75 L 4.0625 -9.75 Z M 4.0625 -8.125 "/></g></g></g><g fill="#ffffff" fill-opacity="1"><g transform="translate(192.075313, 175.520422)"><g><path d="M 0.484375 -4.890625 C 0.484375 -5.890625 0.671875 -6.769531 1.046875 -7.53125 C 1.429688 -8.289062 1.945312 -8.875 2.59375 -9.28125 C 3.25 -9.6875 3.976562 -9.890625 4.78125 -9.890625 C 5.46875 -9.890625 6.070312 -9.75 6.59375 -9.46875 C 7.113281 -9.1875 7.515625 -8.820312 7.796875 -8.375 L 7.796875 -9.75 L 10.78125 -9.75 L 10.78125 0 L 7.796875 0 L 7.796875 -1.375 C 7.503906 -0.925781 7.097656 -0.5625 6.578125 -0.28125 C 6.054688 0 5.453125 0.140625 4.765625 0.140625 C 3.972656 0.140625 3.25 -0.0625 2.59375 -0.46875 C 1.945312 -0.882812 1.429688 -1.472656 1.046875 -2.234375 C 0.671875 -3.003906 0.484375 -3.890625 0.484375 -4.890625 Z M 7.796875 -4.875 C 7.796875 -5.613281 7.585938 -6.195312 7.171875 -6.625 C 6.753906 -7.0625 6.25 -7.28125 5.65625 -7.28125 C 5.0625 -7.28125 4.554688 -7.066406 4.140625 -6.640625 C 3.734375 -6.222656 3.53125 -5.640625 3.53125 -4.890625 C 3.53125 -4.140625 3.734375 -3.546875 4.140625 -3.109375 C 4.554688 -2.679688 5.0625 -2.46875 5.65625 -2.46875 C 6.25 -2.46875 6.753906 -2.679688 7.171875 -3.109375 C 7.585938 -3.535156 7.796875 -4.125 7.796875 -4.875 Z M 7.796875 -4.875 "/></g></g></g><g fill="#ffffff" fill-opacity="1"><g transform="translate(203.932546, 175.520422)"><g><path d="M 13.515625 -9.859375 C 14.734375 -9.859375 15.695312 -9.488281 16.40625 -8.75 C 17.125 -8.019531 17.484375 -7 17.484375 -5.6875 L 17.484375 0 L 14.515625 0 L 14.515625 -5.296875 C 14.515625 -5.921875 14.347656 -6.40625 14.015625 -6.75 C 13.679688 -7.09375 13.222656 -7.265625 12.640625 -7.265625 C 12.066406 -7.265625 11.613281 -7.09375 11.28125 -6.75 C 10.945312 -6.40625 10.78125 -5.921875 10.78125 -5.296875 L 10.78125 0 L 7.8125 0 L 7.8125 -5.296875 C 7.8125 -5.921875 7.644531 -6.40625 7.3125 -6.75 C 6.976562 -7.09375 6.519531 -7.265625 5.9375 -7.265625 C 5.351562 -7.265625 4.894531 -7.09375 4.5625 -6.75 C 4.226562 -6.40625 4.0625 -5.921875 4.0625 -5.296875 L 4.0625 0 L 1.078125 0 L 1.078125 -9.75 L 4.0625 -9.75 L 4.0625 -8.53125 C 4.375 -8.9375 4.769531 -9.257812 5.25 -9.5 C 5.738281 -9.738281 6.296875 -9.859375 6.921875 -9.859375 C 7.648438 -9.859375 8.300781 -9.695312 8.875 -9.375 C 9.457031 -9.0625 9.910156 -8.613281 10.234375 -8.03125 C 10.578125 -8.570312 11.035156 -9.007812 11.609375 -9.34375 C 12.191406 -9.6875 12.828125 -9.859375 13.515625 -9.859375 Z M 13.515625 -9.859375 "/></g></g></g><g fill="#ffffff" fill-opacity="1"><g transform="translate(222.425647, 175.520422)"><g><path d="M 13.515625 -9.859375 C 14.734375 -9.859375 15.695312 -9.488281 16.40625 -8.75 C 17.125 -8.019531 17.484375 -7 17.484375 -5.6875 L 17.484375 0 L 14.515625 0 L 14.515625 -5.296875 C 14.515625 -5.921875 14.347656 -6.40625 14.015625 -6.75 C 13.679688 -7.09375 13.222656 -7.265625 12.640625 -7.265625 C 12.066406 -7.265625 11.613281 -7.09375 11.28125 -6.75 C 10.945312 -6.40625 10.78125 -5.921875 10.78125 -5.296875 L 10.78125 0 L 7.8125 0 L 7.8125 -5.296875 C 7.8125 -5.921875 7.644531 -6.40625 7.3125 -6.75 C 6.976562 -7.09375 6.519531 -7.265625 5.9375 -7.265625 C 5.351562 -7.265625 4.894531 -7.09375 4.5625 -6.75 C 4.226562 -6.40625 4.0625 -5.921875 4.0625 -5.296875 L 4.0625 0 L 1.078125 0 L 1.078125 -9.75 L 4.0625 -9.75 L 4.0625 -8.53125 C 4.375 -8.9375 4.769531 -9.257812 5.25 -9.5 C 5.738281 -9.738281 6.296875 -9.859375 6.921875 -9.859375 C 7.648438 -9.859375 8.300781 -9.695312 8.875 -9.375 C 9.457031 -9.0625 9.910156 -8.613281 10.234375 -8.03125 C 10.578125 -8.570312 11.035156 -9.007812 11.609375 -9.34375 C 12.191406 -9.6875 12.828125 -9.859375 13.515625 -9.859375 Z M 13.515625 -9.859375 "/></g></g></g><g fill="#ffffff" fill-opacity="1"><g transform="translate(240.918748, 175.520422)"><g><path d="M 2.578125 -10.765625 C 2.054688 -10.765625 1.628906 -10.914062 1.296875 -11.21875 C 0.960938 -11.53125 0.796875 -11.914062 0.796875 -12.375 C 0.796875 -12.832031 0.960938 -13.21875 1.296875 -13.53125 C 1.628906 -13.84375 2.054688 -14 2.578125 -14 C 3.097656 -14 3.519531 -13.84375 3.84375 -13.53125 C 4.175781 -13.21875 4.34375 -12.832031 4.34375 -12.375 C 4.34375 -11.914062 4.175781 -11.53125 3.84375 -11.21875 C 3.519531 -10.914062 3.097656 -10.765625 2.578125 -10.765625 Z M 4.0625 -9.75 L 4.0625 0 L 1.078125 0 L 1.078125 -9.75 Z M 4.0625 -9.75 "/></g></g></g><g fill="#ffffff" fill-opacity="1"><g transform="translate(246.070268, 175.520422)"><g><path d="M 7.015625 -9.859375 C 8.160156 -9.859375 9.070312 -9.488281 9.75 -8.75 C 10.4375 -8.007812 10.78125 -6.988281 10.78125 -5.6875 L 10.78125 0 L 7.8125 0 L 7.8125 -5.296875 C 7.8125 -5.941406 7.640625 -6.445312 7.296875 -6.8125 C 6.960938 -7.175781 6.507812 -7.359375 5.9375 -7.359375 C 5.363281 -7.359375 4.90625 -7.175781 4.5625 -6.8125 C 4.226562 -6.445312 4.0625 -5.941406 4.0625 -5.296875 L 4.0625 0 L 1.078125 0 L 1.078125 -9.75 L 4.0625 -9.75 L 4.0625 -8.453125 C 4.375 -8.878906 4.785156 -9.21875 5.296875 -9.46875 C 5.804688 -9.726562 6.378906 -9.859375 7.015625 -9.859375 Z M 7.015625 -9.859375 "/></g></g></g><g fill="#ffffff" fill-opacity="1"><g transform="translate(257.840181, 175.520422)"><g><path d="M 4.78125 -9.890625 C 5.46875 -9.890625 6.070312 -9.75 6.59375 -9.46875 C 7.113281 -9.1875 7.515625 -8.820312 7.796875 -8.375 L 7.796875 -9.75 L 10.78125 -9.75 L 10.78125 -0.015625 C 10.78125 0.878906 10.601562 1.691406 10.25 2.421875 C 9.894531 3.148438 9.351562 3.726562 8.625 4.15625 C 7.894531 4.582031 6.988281 4.796875 5.90625 4.796875 C 4.457031 4.796875 3.285156 4.457031 2.390625 3.78125 C 1.492188 3.101562 0.984375 2.179688 0.859375 1.015625 L 3.8125 1.015625 C 3.90625 1.390625 4.125 1.679688 4.46875 1.890625 C 4.820312 2.109375 5.253906 2.21875 5.765625 2.21875 C 6.378906 2.21875 6.867188 2.039062 7.234375 1.6875 C 7.609375 1.332031 7.796875 0.765625 7.796875 -0.015625 L 7.796875 -1.390625 C 7.503906 -0.941406 7.097656 -0.570312 6.578125 -0.28125 C 6.066406 0 5.46875 0.140625 4.78125 0.140625 C 3.976562 0.140625 3.25 -0.0625 2.59375 -0.46875 C 1.945312 -0.882812 1.429688 -1.472656 1.046875 -2.234375 C 0.671875 -3.003906 0.484375 -3.890625 0.484375 -4.890625 C 0.484375 -5.890625 0.671875 -6.769531 1.046875 -7.53125 C 1.429688 -8.289062 1.945312 -8.875 2.59375 -9.28125 C 3.25 -9.6875 3.976562 -9.890625 4.78125 -9.890625 Z M 7.796875 -4.875 C 7.796875 -5.613281 7.585938 -6.195312 7.171875 -6.625 C 6.753906 -7.0625 6.25 -7.28125 5.65625 -7.28125 C 5.0625 -7.28125 4.554688 -7.066406 4.140625 -6.640625 C 3.734375 -6.222656 3.53125 -5.640625 3.53125 -4.890625 C 3.53125 -4.140625 3.734375 -3.546875 4.140625 -3.109375 C 4.554688 -2.679688 5.0625 -2.46875 5.65625 -2.46875 C 6.25 -2.46875 6.753906 -2.679688 7.171875 -3.109375 C 7.585938 -3.535156 7.796875 -4.125 7.796875 -4.875 Z M 7.796875 -4.875 "/></g></g></g><g fill="#ffffff" fill-opacity="1"><g transform="translate(269.697414, 175.520422)"><g/></g></g><g fill="#ffffff" fill-opacity="1"><g transform="translate(273.399524, 175.520422)"><g><path d="M 4.0625 -12.921875 L 4.0625 0 L 1.078125 0 L 1.078125 -12.921875 Z M 4.0625 -12.921875 "/></g></g></g><g fill="#ffffff" fill-opacity="1"><g transform="translate(278.551044, 175.520422)"><g><path d="M 0.484375 -4.890625 C 0.484375 -5.890625 0.671875 -6.769531 1.046875 -7.53125 C 1.429688 -8.289062 1.945312 -8.875 2.59375 -9.28125 C 3.25 -9.6875 3.976562 -9.890625 4.78125 -9.890625 C 5.46875 -9.890625 6.070312 -9.75 6.59375 -9.46875 C 7.113281 -9.1875 7.515625 -8.820312 7.796875 -8.375 L 7.796875 -9.75 L 10.78125 -9.75 L 10.78125 0 L 7.796875 0 L 7.796875 -1.375 C 7.503906 -0.925781 7.097656 -0.5625 6.578125 -0.28125 C 6.054688 0 5.453125 0.140625 4.765625 0.140625 C 3.972656 0.140625 3.25 -0.0625 2.59375 -0.46875 C 1.945312 -0.882812 1.429688 -1.472656 1.046875 -2.234375 C 0.671875 -3.003906 0.484375 -3.890625 0.484375 -4.890625 Z M 7.796875 -4.875 C 7.796875 -5.613281 7.585938 -6.195312 7.171875 -6.625 C 6.753906 -7.0625 6.25 -7.28125 5.65625 -7.28125 C 5.0625 -7.28125 4.554688 -7.066406 4.140625 -6.640625 C 3.734375 -6.222656 3.53125 -5.640625 3.53125 -4.890625 C 3.53125 -4.140625 3.734375 -3.546875 4.140625 -3.109375 C 4.554688 -2.679688 5.0625 -2.46875 5.65625 -2.46875 C 6.25 -2.46875 6.753906 -2.679688 7.171875 -3.109375 C 7.585938 -3.535156 7.796875 -4.125 7.796875 -4.875 Z M 7.796875 -4.875 "/></g></g></g><g fill="#ffffff" fill-opacity="1"><g transform="translate(290.408277, 175.520422)"><g><path d="M 7.015625 -9.859375 C 8.160156 -9.859375 9.070312 -9.488281 9.75 -8.75 C 10.4375 -8.007812 10.78125 -6.988281 10.78125 -5.6875 L 10.78125 0 L 7.8125 0 L 7.8125 -5.296875 C 7.8125 -5.941406 7.640625 -6.445312 7.296875 -6.8125 C 6.960938 -7.175781 6.507812 -7.359375 5.9375 -7.359375 C 5.363281 -7.359375 4.90625 -7.175781 4.5625 -6.8125 C 4.226562 -6.445312 4.0625 -5.941406 4.0625 -5.296875 L 4.0625 0 L 1.078125 0 L 1.078125 -9.75 L 4.0625 -9.75 L 4.0625 -8.453125 C 4.375 -8.878906 4.785156 -9.21875 5.296875 -9.46875 C 5.804688 -9.726562 6.378906 -9.859375 7.015625 -9.859375 Z M 7.015625 -9.859375 "/></g></g></g><g fill="#ffffff" fill-opacity="1"><g transform="translate(302.17819, 175.520422)"><g><path d="M 4.78125 -9.890625 C 5.46875 -9.890625 6.070312 -9.75 6.59375 -9.46875 C 7.113281 -9.1875 7.515625 -8.820312 7.796875 -8.375 L 7.796875 -9.75 L 10.78125 -9.75 L 10.78125 -0.015625 C 10.78125 0.878906 10.601562 1.691406 10.25 2.421875 C 9.894531 3.148438 9.351562 3.726562 8.625 4.15625 C 7.894531 4.582031 6.988281 4.796875 5.90625 4.796875 C 4.457031 4.796875 3.285156 4.457031 2.390625 3.78125 C 1.492188 3.101562 0.984375 2.179688 0.859375 1.015625 L 3.8125 1.015625 C 3.90625 1.390625 4.125 1.679688 4.46875 1.890625 C 4.820312 2.109375 5.253906 2.21875 5.765625 2.21875 C 6.378906 2.21875 6.867188 2.039062 7.234375 1.6875 C 7.609375 1.332031 7.796875 0.765625 7.796875 -0.015625 L 7.796875 -1.390625 C 7.503906 -0.941406 7.097656 -0.570312 6.578125 -0.28125 C 6.066406 0 5.46875 0.140625 4.78125 0.140625 C 3.976562 0.140625 3.25 -0.0625 2.59375 -0.46875 C 1.945312 -0.882812 1.429688 -1.472656 1.046875 -2.234375 C 0.671875 -3.003906 0.484375 -3.890625 0.484375 -4.890625 C 0.484375 -5.890625 0.671875 -6.769531 1.046875 -7.53125 C 1.429688 -8.289062 1.945312 -8.875 2.59375 -9.28125 C 3.25 -9.6875 3.976562 -9.890625 4.78125 -9.890625 Z M 7.796875 -4.875 C 7.796875 -5.613281 7.585938 -6.195312 7.171875 -6.625 C 6.753906 -7.0625 6.25 -7.28125 5.65625 -7.28125 C 5.0625 -7.28125 4.554688 -7.066406 4.140625 -6.640625 C 3.734375 -6.222656 3.53125 -5.640625 3.53125 -4.890625 C 3.53125 -4.140625 3.734375 -3.546875 4.140625 -3.109375 C 4.554688 -2.679688 5.0625 -2.46875 5.65625 -2.46875 C 6.25 -2.46875 6.753906 -2.679688 7.171875 -3.109375 C 7.585938 -3.535156 7.796875 -4.125 7.796875 -4.875 Z M 7.796875 -4.875 "/></g></g></g><g fill="#ffffff" fill-opacity="1"><g transform="translate(314.035422, 175.520422)"><g><path d="M 10.703125 -9.75 L 10.703125 0 L 7.71875 0 L 7.71875 -1.328125 C 7.414062 -0.898438 7.003906 -0.550781 6.484375 -0.28125 C 5.972656 -0.0195312 5.398438 0.109375 4.765625 0.109375 C 4.023438 0.109375 3.367188 -0.0546875 2.796875 -0.390625 C 2.222656 -0.722656 1.78125 -1.203125 1.46875 -1.828125 C 1.15625 -2.460938 1 -3.203125 1 -4.046875 L 1 -9.75 L 3.96875 -9.75 L 3.96875 -4.453125 C 3.96875 -3.796875 4.132812 -3.285156 4.46875 -2.921875 C 4.8125 -2.566406 5.265625 -2.390625 5.828125 -2.390625 C 6.410156 -2.390625 6.867188 -2.566406 7.203125 -2.921875 C 7.546875 -3.285156 7.71875 -3.796875 7.71875 -4.453125 L 7.71875 -9.75 Z M 10.703125 -9.75 "/></g></g></g><g fill="#ffffff" fill-opacity="1"><g transform="translate(325.805335, 175.520422)"><g><path d="M 0.484375 -4.890625 C 0.484375 -5.890625 0.671875 -6.769531 1.046875 -7.53125 C 1.429688 -8.289062 1.945312 -8.875 2.59375 -9.28125 C 3.25 -9.6875 3.976562 -9.890625 4.78125 -9.890625 C 5.46875 -9.890625 6.070312 -9.75 6.59375 -9.46875 C 7.113281 -9.1875 7.515625 -8.820312 7.796875 -8.375 L 7.796875 -9.75 L 10.78125 -9.75 L 10.78125 0 L 7.796875 0 L 7.796875 -1.375 C 7.503906 -0.925781 7.097656 -0.5625 6.578125 -0.28125 C 6.054688 0 5.453125 0.140625 4.765625 0.140625 C 3.972656 0.140625 3.25 -0.0625 2.59375 -0.46875 C 1.945312 -0.882812 1.429688 -1.472656 1.046875 -2.234375 C 0.671875 -3.003906 0.484375 -3.890625 0.484375 -4.890625 Z M 7.796875 -4.875 C 7.796875 -5.613281 7.585938 -6.195312 7.171875 -6.625 C 6.753906 -7.0625 6.25 -7.28125 5.65625 -7.28125 C 5.0625 -7.28125 4.554688 -7.066406 4.140625 -6.640625 C 3.734375 -6.222656 3.53125 -5.640625 3.53125 -4.890625 C 3.53125 -4.140625 3.734375 -3.546875 4.140625 -3.109375 C 4.554688 -2.679688 5.0625 -2.46875 5.65625 -2.46875 C 6.25 -2.46875 6.753906 -2.679688 7.171875 -3.109375 C 7.585938 -3.535156 7.796875 -4.125 7.796875 -4.875 Z M 7.796875 -4.875 "/></g></g></g><g fill="#ffffff" fill-opacity="1"><g transform="translate(337.662568, 175.520422)"><g><path d="M 4.78125 -9.890625 C 5.46875 -9.890625 6.070312 -9.75 6.59375 -9.46875 C 7.113281 -9.1875 7.515625 -8.820312 7.796875 -8.375 L 7.796875 -9.75 L 10.78125 -9.75 L 10.78125 -0.015625 C 10.78125 0.878906 10.601562 1.691406 10.25 2.421875 C 9.894531 3.148438 9.351562 3.726562 8.625 4.15625 C 7.894531 4.582031 6.988281 4.796875 5.90625 4.796875 C 4.457031 4.796875 3.285156 4.457031 2.390625 3.78125 C 1.492188 3.101562 0.984375 2.179688 0.859375 1.015625 L 3.8125 1.015625 C 3.90625 1.390625 4.125 1.679688 4.46875 1.890625 C 4.820312 2.109375 5.253906 2.21875 5.765625 2.21875 C 6.378906 2.21875 6.867188 2.039062 7.234375 1.6875 C 7.609375 1.332031 7.796875 0.765625 7.796875 -0.015625 L 7.796875 -1.390625 C 7.503906 -0.941406 7.097656 -0.570312 6.578125 -0.28125 C 6.066406 0 5.46875 0.140625 4.78125 0.140625 C 3.976562 0.140625 3.25 -0.0625 2.59375 -0.46875 C 1.945312 -0.882812 1.429688 -1.472656 1.046875 -2.234375 C 0.671875 -3.003906 0.484375 -3.890625 0.484375 -4.890625 C 0.484375 -5.890625 0.671875 -6.769531 1.046875 -7.53125 C 1.429688 -8.289062 1.945312 -8.875 2.59375 -9.28125 C 3.25 -9.6875 3.976562 -9.890625 4.78125 -9.890625 Z M 7.796875 -4.875 C 7.796875 -5.613281 7.585938 -6.195312 7.171875 -6.625 C 6.753906 -7.0625 6.25 -7.28125 5.65625 -7.28125 C 5.0625 -7.28125 4.554688 -7.066406 4.140625 -6.640625 C 3.734375 -6.222656 3.53125 -5.640625 3.53125 -4.890625 C 3.53125 -4.140625 3.734375 -3.546875 4.140625 -3.109375 C 4.554688 -2.679688 5.0625 -2.46875 5.65625 -2.46875 C 6.25 -2.46875 6.753906 -2.679688 7.171875 -3.109375 C 7.585938 -3.535156 7.796875 -4.125 7.796875 -4.875 Z M 7.796875 -4.875 "/></g></g></g><g fill="#ffffff" fill-opacity="1"><g transform="translate(349.5198, 175.520422)"><g><path d="M 10.265625 -5.03125 C 10.265625 -4.75 10.25 -4.457031 10.21875 -4.15625 L 3.453125 -4.15625 C 3.503906 -3.550781 3.703125 -3.085938 4.046875 -2.765625 C 4.390625 -2.441406 4.8125 -2.28125 5.3125 -2.28125 C 6.050781 -2.28125 6.566406 -2.597656 6.859375 -3.234375 L 10.046875 -3.234375 C 9.878906 -2.585938 9.582031 -2.007812 9.15625 -1.5 C 8.738281 -0.988281 8.207031 -0.585938 7.5625 -0.296875 C 6.925781 -0.00390625 6.210938 0.140625 5.421875 0.140625 C 4.460938 0.140625 3.609375 -0.0625 2.859375 -0.46875 C 2.117188 -0.875 1.535156 -1.457031 1.109375 -2.21875 C 0.691406 -2.976562 0.484375 -3.863281 0.484375 -4.875 C 0.484375 -5.882812 0.691406 -6.769531 1.109375 -7.53125 C 1.523438 -8.289062 2.101562 -8.875 2.84375 -9.28125 C 3.59375 -9.6875 4.453125 -9.890625 5.421875 -9.890625 C 6.359375 -9.890625 7.191406 -9.691406 7.921875 -9.296875 C 8.660156 -8.898438 9.234375 -8.332031 9.640625 -7.59375 C 10.054688 -6.863281 10.265625 -6.007812 10.265625 -5.03125 Z M 7.21875 -5.8125 C 7.21875 -6.320312 7.039062 -6.726562 6.6875 -7.03125 C 6.34375 -7.34375 5.90625 -7.5 5.375 -7.5 C 4.875 -7.5 4.453125 -7.351562 4.109375 -7.0625 C 3.765625 -6.769531 3.550781 -6.351562 3.46875 -5.8125 Z M 7.21875 -5.8125 "/></g></g></g><g fill="#ffffff" fill-opacity="1"><g transform="translate(360.276878, 175.520422)"><g><path d="M 5.046875 0.140625 C 4.191406 0.140625 3.429688 -0.00390625 2.765625 -0.296875 C 2.109375 -0.585938 1.585938 -0.984375 1.203125 -1.484375 C 0.816406 -1.992188 0.601562 -2.566406 0.5625 -3.203125 L 3.515625 -3.203125 C 3.546875 -2.859375 3.703125 -2.582031 3.984375 -2.375 C 4.265625 -2.164062 4.609375 -2.0625 5.015625 -2.0625 C 5.390625 -2.0625 5.675781 -2.132812 5.875 -2.28125 C 6.082031 -2.425781 6.1875 -2.613281 6.1875 -2.84375 C 6.1875 -3.125 6.039062 -3.332031 5.75 -3.46875 C 5.457031 -3.601562 4.984375 -3.75 4.328125 -3.90625 C 3.628906 -4.070312 3.046875 -4.242188 2.578125 -4.421875 C 2.117188 -4.609375 1.71875 -4.894531 1.375 -5.28125 C 1.039062 -5.675781 0.875 -6.203125 0.875 -6.859375 C 0.875 -7.421875 1.023438 -7.929688 1.328125 -8.390625 C 1.640625 -8.847656 2.09375 -9.210938 2.6875 -9.484375 C 3.289062 -9.753906 4.007812 -9.890625 4.84375 -9.890625 C 6.0625 -9.890625 7.019531 -9.585938 7.71875 -8.984375 C 8.425781 -8.378906 8.832031 -7.570312 8.9375 -6.5625 L 6.1875 -6.5625 C 6.132812 -6.90625 5.984375 -7.175781 5.734375 -7.375 C 5.484375 -7.570312 5.15625 -7.671875 4.75 -7.671875 C 4.40625 -7.671875 4.140625 -7.601562 3.953125 -7.46875 C 3.765625 -7.332031 3.671875 -7.148438 3.671875 -6.921875 C 3.671875 -6.640625 3.816406 -6.425781 4.109375 -6.28125 C 4.410156 -6.144531 4.875 -6.007812 5.5 -5.875 C 6.21875 -5.6875 6.804688 -5.5 7.265625 -5.3125 C 7.722656 -5.132812 8.125 -4.84375 8.46875 -4.4375 C 8.8125 -4.039062 8.988281 -3.503906 9 -2.828125 C 9 -2.253906 8.835938 -1.742188 8.515625 -1.296875 C 8.191406 -0.847656 7.726562 -0.492188 7.125 -0.234375 C 6.53125 0.015625 5.835938 0.140625 5.046875 0.140625 Z M 5.046875 0.140625 "/></g></g></g><g fill="#ffffff" fill-opacity="1"><g transform="translate(370.02112, 175.520422)"><g><path d="M 2.484375 0.140625 C 1.953125 0.140625 1.519531 -0.0078125 1.1875 -0.3125 C 0.863281 -0.625 0.703125 -1.007812 0.703125 -1.46875 C 0.703125 -1.9375 0.863281 -2.328125 1.1875 -2.640625 C 1.519531 -2.953125 1.953125 -3.109375 2.484375 -3.109375 C 2.992188 -3.109375 3.414062 -2.953125 3.75 -2.640625 C 4.082031 -2.328125 4.25 -1.9375 4.25 -1.46875 C 4.25 -1.007812 4.082031 -0.625 3.75 -0.3125 C 3.414062 -0.0078125 2.992188 0.140625 2.484375 0.140625 Z M 2.484375 0.140625 "/></g></g></g><g fill="#ffffff" fill-opacity="1"><g transform="translate(416.041669, 121.479131)"><g><path d="M 13.96875 -17.28125 L 13.96875 -13.90625 L 9.375 -13.90625 L 9.375 0 L 5.171875 0 L 5.171875 -13.90625 L 0.59375 -13.90625 L 0.59375 -17.28125 Z M 13.96875 -17.28125 "/></g></g></g><g fill="#ffffff" fill-opacity="1"><g transform="translate(430.591038, 121.479131)"><g><path d="M 7.78125 0.203125 C 6.4375 0.203125 5.222656 -0.0820312 4.140625 -0.65625 C 3.066406 -1.238281 2.222656 -2.0625 1.609375 -3.125 C 0.992188 -4.195312 0.6875 -5.445312 0.6875 -6.875 C 0.6875 -8.28125 1 -9.519531 1.625 -10.59375 C 2.25 -11.675781 3.101562 -12.503906 4.1875 -13.078125 C 5.269531 -13.648438 6.484375 -13.9375 7.828125 -13.9375 C 9.171875 -13.9375 10.382812 -13.648438 11.46875 -13.078125 C 12.550781 -12.503906 13.40625 -11.675781 14.03125 -10.59375 C 14.65625 -9.519531 14.96875 -8.28125 14.96875 -6.875 C 14.96875 -5.457031 14.648438 -4.210938 14.015625 -3.140625 C 13.390625 -2.066406 12.53125 -1.238281 11.4375 -0.65625 C 10.34375 -0.0820312 9.125 0.203125 7.78125 0.203125 Z M 7.78125 -3.453125 C 8.582031 -3.453125 9.265625 -3.742188 9.828125 -4.328125 C 10.398438 -4.921875 10.6875 -5.769531 10.6875 -6.875 C 10.6875 -7.96875 10.410156 -8.8125 9.859375 -9.40625 C 9.304688 -10 8.628906 -10.296875 7.828125 -10.296875 C 7.003906 -10.296875 6.320312 -10.003906 5.78125 -9.421875 C 5.238281 -8.835938 4.96875 -7.988281 4.96875 -6.875 C 4.96875 -5.769531 5.234375 -4.921875 5.765625 -4.328125 C 6.304688 -3.742188 6.976562 -3.453125 7.78125 -3.453125 Z M 7.78125 -3.453125 "/></g></g></g></svg>