<svg xmlns="http://www.w3.org/2000/svg" xmlns:xlink="http://www.w3.org/1999/xlink" width="922" zoomAndPan="magnify" viewBox="0 0 691.5 97.5" height="130" preserveAspectRatio="xMidYMid meet" version="1.0"><defs><clipPath id="1ccc4884b4"><path d="M 194.96875 5.273438 L 275.554688 5.273438 L 275.554688 85.859375 L 194.96875 85.859375 Z M 194.96875 5.273438 " clip-rule="nonzero"/></clipPath><clipPath id="6ac6cd8f47"><path d="M 292.636719 6 L 379.941406 6 L 379.941406 84 L 292.636719 84 Z M 292.636719 6 " clip-rule="nonzero"/></clipPath><clipPath id="dc18a6a88f"><path d="M 2.230469 5.273438 L 82 5.273438 L 82 96 L 2.230469 96 Z M 2.230469 5.273438 " clip-rule="nonzero"/></clipPath><clipPath id="d63162f78b"><path d="M 98.1875 4.492188 L 179.519531 4.492188 L 179.519531 95.527344 L 98.1875 95.527344 Z M 98.1875 4.492188 " clip-rule="nonzero"/></clipPath><clipPath id="e6bb735659"><path d="M 568.859375 5.273438 L 688.996094 5.273438 L 688.996094 77.652344 L 568.859375 77.652344 Z M 568.859375 5.273438 " clip-rule="nonzero"/></clipPath><clipPath id="4a99c05e03"><path d="M 628.925781 5.273438 C 612.910156 5.273438 602.898438 13.3125 598.894531 29.398438 C 604.902344 21.355469 611.910156 18.339844 619.917969 20.351562 C 624.488281 21.496094 627.753906 24.828125 631.367188 28.511719 C 637.257812 34.515625 644.070312 41.460938 658.957031 41.460938 C 674.976562 41.460938 684.984375 33.417969 688.992188 17.335938 C 682.984375 25.378906 675.976562 28.394531 667.96875 26.382812 C 663.398438 25.234375 660.132812 21.90625 656.519531 18.222656 C 650.628906 12.21875 643.8125 5.273438 628.925781 5.273438 Z M 598.894531 41.460938 C 582.878906 41.460938 572.867188 49.503906 568.863281 65.585938 C 574.871094 57.546875 581.878906 54.53125 589.886719 56.539062 C 594.457031 57.6875 597.722656 61.015625 601.335938 64.699219 C 607.226562 70.703125 614.039062 77.652344 628.925781 77.652344 C 644.945312 77.652344 654.953125 69.609375 658.957031 53.523438 C 652.953125 61.566406 645.945312 64.582031 637.9375 62.570312 C 633.367188 61.425781 630.101562 58.097656 626.488281 54.410156 C 620.597656 48.410156 613.78125 41.460938 598.894531 41.460938 Z M 598.894531 41.460938 " clip-rule="nonzero"/></clipPath><linearGradient x1="-13.502165" gradientTransform="matrix(0.800841, 0, 0, 0.804209, 568.864304, 5.271872)" y1="23.417483" x2="138.017669" gradientUnits="userSpaceOnUse" y2="110.781536" id="64e2474814"><stop stop-opacity="1" stop-color="rgb(13.299561%, 59.599304%, 74.099731%)" offset="0"/><stop stop-opacity="1" stop-color="rgb(13.294983%, 59.611511%, 74.098206%)" offset="0.0625"/><stop stop-opacity="1" stop-color="rgb(13.25531%, 59.738159%, 74.081421%)" offset="0.0703125"/><stop stop-opacity="1" stop-color="rgb(13.183594%, 59.963989%, 74.052429%)" offset="0.078125"/><stop stop-opacity="1" stop-color="rgb(13.111877%, 60.189819%, 74.024963%)" offset="0.0859375"/><stop stop-opacity="1" stop-color="rgb(13.041687%, 60.414124%, 73.995972%)" offset="0.09375"/><stop stop-opacity="1" stop-color="rgb(12.969971%, 60.639954%, 73.968506%)" offset="0.101562"/><stop stop-opacity="1" stop-color="rgb(12.898254%, 60.865784%, 73.939514%)" offset="0.109375"/><stop stop-opacity="1" stop-color="rgb(12.828064%, 61.091614%, 73.912048%)" offset="0.117187"/><stop stop-opacity="1" stop-color="rgb(12.756348%, 61.317444%, 73.883057%)" offset="0.125"/><stop stop-opacity="1" stop-color="rgb(12.684631%, 61.543274%, 73.854065%)" offset="0.132812"/><stop stop-opacity="1" stop-color="rgb(12.612915%, 61.769104%, 73.826599%)" offset="0.140625"/><stop stop-opacity="1" stop-color="rgb(12.542725%, 61.994934%, 73.797607%)" offset="0.148437"/><stop stop-opacity="1" stop-color="rgb(12.471008%, 62.220764%, 73.770142%)" offset="0.15625"/><stop stop-opacity="1" stop-color="rgb(12.399292%, 62.446594%, 73.74115%)" offset="0.164062"/><stop stop-opacity="1" stop-color="rgb(12.329102%, 62.672424%, 73.713684%)" offset="0.171875"/><stop stop-opacity="1" stop-color="rgb(12.257385%, 62.896729%, 73.684692%)" offset="0.179688"/><stop stop-opacity="1" stop-color="rgb(12.185669%, 63.122559%, 73.657227%)" offset="0.1875"/><stop stop-opacity="1" stop-color="rgb(12.113953%, 63.348389%, 73.628235%)" offset="0.195312"/><stop stop-opacity="1" stop-color="rgb(12.043762%, 63.574219%, 73.599243%)" offset="0.203125"/><stop stop-opacity="1" stop-color="rgb(11.972046%, 63.800049%, 73.571777%)" offset="0.210938"/><stop stop-opacity="1" stop-color="rgb(11.90033%, 64.025879%, 73.542786%)" offset="0.21875"/><stop stop-opacity="1" stop-color="rgb(11.830139%, 64.251709%, 73.51532%)" offset="0.226562"/><stop stop-opacity="1" stop-color="rgb(11.758423%, 64.477539%, 73.486328%)" offset="0.234375"/><stop stop-opacity="1" stop-color="rgb(11.686707%, 64.703369%, 73.458862%)" offset="0.242187"/><stop stop-opacity="1" stop-color="rgb(11.61499%, 64.929199%, 73.429871%)" offset="0.25"/><stop stop-opacity="1" stop-color="rgb(11.5448%, 65.155029%, 73.400879%)" offset="0.257031"/><stop stop-opacity="1" stop-color="rgb(11.509705%, 65.267944%, 73.387146%)" offset="0.257812"/><stop stop-opacity="1" stop-color="rgb(11.473083%, 65.380859%, 73.373413%)" offset="0.265625"/><stop stop-opacity="1" stop-color="rgb(11.401367%, 65.605164%, 73.344421%)" offset="0.273438"/><stop stop-opacity="1" stop-color="rgb(11.331177%, 65.830994%, 73.316956%)" offset="0.28125"/><stop stop-opacity="1" stop-color="rgb(11.25946%, 66.056824%, 73.287964%)" offset="0.289062"/><stop stop-opacity="1" stop-color="rgb(11.187744%, 66.282654%, 73.260498%)" offset="0.296875"/><stop stop-opacity="1" stop-color="rgb(11.116028%, 66.508484%, 73.231506%)" offset="0.304688"/><stop stop-opacity="1" stop-color="rgb(11.045837%, 66.734314%, 73.204041%)" offset="0.3125"/><stop stop-opacity="1" stop-color="rgb(10.974121%, 66.960144%, 73.175049%)" offset="0.320312"/><stop stop-opacity="1" stop-color="rgb(10.902405%, 67.185974%, 73.146057%)" offset="0.328125"/><stop stop-opacity="1" stop-color="rgb(10.832214%, 67.411804%, 73.118591%)" offset="0.335937"/><stop stop-opacity="1" stop-color="rgb(10.760498%, 67.637634%, 73.0896%)" offset="0.34375"/><stop stop-opacity="1" stop-color="rgb(10.688782%, 67.863464%, 73.062134%)" offset="0.351562"/><stop stop-opacity="1" stop-color="rgb(10.618591%, 68.087769%, 73.033142%)" offset="0.359375"/><stop stop-opacity="1" stop-color="rgb(10.546875%, 68.313599%, 73.005676%)" offset="0.367188"/><stop stop-opacity="1" stop-color="rgb(10.475159%, 68.539429%, 72.976685%)" offset="0.375"/><stop stop-opacity="1" stop-color="rgb(10.403442%, 68.765259%, 72.947693%)" offset="0.382812"/><stop stop-opacity="1" stop-color="rgb(10.333252%, 68.991089%, 72.920227%)" offset="0.390625"/><stop stop-opacity="1" stop-color="rgb(10.261536%, 69.216919%, 72.891235%)" offset="0.398438"/><stop stop-opacity="1" stop-color="rgb(10.189819%, 69.442749%, 72.86377%)" offset="0.40625"/><stop stop-opacity="1" stop-color="rgb(10.119629%, 69.668579%, 72.834778%)" offset="0.414062"/><stop stop-opacity="1" stop-color="rgb(10.047913%, 69.894409%, 72.807312%)" offset="0.421875"/><stop stop-opacity="1" stop-color="rgb(9.976196%, 70.120239%, 72.77832%)" offset="0.429687"/><stop stop-opacity="1" stop-color="rgb(9.90448%, 70.346069%, 72.749329%)" offset="0.4375"/><stop stop-opacity="1" stop-color="rgb(9.83429%, 70.570374%, 72.721863%)" offset="0.445312"/><stop stop-opacity="1" stop-color="rgb(9.762573%, 70.796204%, 72.692871%)" offset="0.453125"/><stop stop-opacity="1" stop-color="rgb(9.690857%, 71.022034%, 72.665405%)" offset="0.460938"/><stop stop-opacity="1" stop-color="rgb(9.620667%, 71.247864%, 72.636414%)" offset="0.46875"/><stop stop-opacity="1" stop-color="rgb(9.54895%, 71.473694%, 72.608948%)" offset="0.476562"/><stop stop-opacity="1" stop-color="rgb(9.477234%, 71.699524%, 72.579956%)" offset="0.484375"/><stop stop-opacity="1" stop-color="rgb(9.405518%, 71.925354%, 72.55249%)" offset="0.492188"/><stop stop-opacity="1" stop-color="rgb(9.335327%, 72.151184%, 72.523499%)" offset="0.5"/><stop stop-opacity="1" stop-color="rgb(9.263611%, 72.377014%, 72.494507%)" offset="0.507813"/><stop stop-opacity="1" stop-color="rgb(9.191895%, 72.602844%, 72.467041%)" offset="0.515625"/><stop stop-opacity="1" stop-color="rgb(9.121704%, 72.828674%, 72.438049%)" offset="0.523438"/><stop stop-opacity="1" stop-color="rgb(9.049988%, 73.054504%, 72.410583%)" offset="0.53125"/><stop stop-opacity="1" stop-color="rgb(8.978271%, 73.278809%, 72.381592%)" offset="0.539062"/><stop stop-opacity="1" stop-color="rgb(8.908081%, 73.504639%, 72.354126%)" offset="0.546875"/><stop stop-opacity="1" stop-color="rgb(8.836365%, 73.730469%, 72.325134%)" offset="0.554688"/><stop stop-opacity="1" stop-color="rgb(8.764648%, 73.956299%, 72.296143%)" offset="0.5625"/><stop stop-opacity="1" stop-color="rgb(8.692932%, 74.182129%, 72.268677%)" offset="0.570312"/><stop stop-opacity="1" stop-color="rgb(8.622742%, 74.407959%, 72.239685%)" offset="0.578125"/><stop stop-opacity="1" stop-color="rgb(8.551025%, 74.633789%, 72.212219%)" offset="0.585937"/><stop stop-opacity="1" stop-color="rgb(8.479309%, 74.859619%, 72.183228%)" offset="0.59375"/><stop stop-opacity="1" stop-color="rgb(8.409119%, 75.085449%, 72.155762%)" offset="0.601563"/><stop stop-opacity="1" stop-color="rgb(8.337402%, 75.311279%, 72.12677%)" offset="0.609375"/><stop stop-opacity="1" stop-color="rgb(8.265686%, 75.537109%, 72.099304%)" offset="0.617188"/><stop stop-opacity="1" stop-color="rgb(8.19397%, 75.761414%, 72.070312%)" offset="0.625"/><stop stop-opacity="1" stop-color="rgb(8.123779%, 75.987244%, 72.041321%)" offset="0.632812"/><stop stop-opacity="1" stop-color="rgb(8.052063%, 76.213074%, 72.013855%)" offset="0.640625"/><stop stop-opacity="1" stop-color="rgb(7.980347%, 76.438904%, 71.984863%)" offset="0.648438"/><stop stop-opacity="1" stop-color="rgb(7.910156%, 76.664734%, 71.957397%)" offset="0.65625"/><stop stop-opacity="1" stop-color="rgb(7.83844%, 76.890564%, 71.928406%)" offset="0.664062"/><stop stop-opacity="1" stop-color="rgb(7.766724%, 77.116394%, 71.90094%)" offset="0.671875"/><stop stop-opacity="1" stop-color="rgb(7.695007%, 77.342224%, 71.871948%)" offset="0.679687"/><stop stop-opacity="1" stop-color="rgb(7.624817%, 77.568054%, 71.842957%)" offset="0.6875"/><stop stop-opacity="1" stop-color="rgb(7.553101%, 77.793884%, 71.815491%)" offset="0.695313"/><stop stop-opacity="1" stop-color="rgb(7.481384%, 78.019714%, 71.786499%)" offset="0.703125"/><stop stop-opacity="1" stop-color="rgb(7.411194%, 78.244019%, 71.759033%)" offset="0.710938"/><stop stop-opacity="1" stop-color="rgb(7.339478%, 78.469849%, 71.730042%)" offset="0.71875"/><stop stop-opacity="1" stop-color="rgb(7.267761%, 78.695679%, 71.702576%)" offset="0.726562"/><stop stop-opacity="1" stop-color="rgb(7.196045%, 78.921509%, 71.673584%)" offset="0.734375"/><stop stop-opacity="1" stop-color="rgb(7.125854%, 79.147339%, 71.646118%)" offset="0.742188"/><stop stop-opacity="1" stop-color="rgb(7.054138%, 79.373169%, 71.617126%)" offset="0.742969"/><stop stop-opacity="1" stop-color="rgb(7.019043%, 79.486084%, 71.603394%)" offset="0.75"/><stop stop-opacity="1" stop-color="rgb(6.982422%, 79.598999%, 71.588135%)" offset="0.757812"/><stop stop-opacity="1" stop-color="rgb(6.912231%, 79.824829%, 71.560669%)" offset="0.765625"/><stop stop-opacity="1" stop-color="rgb(6.840515%, 80.050659%, 71.531677%)" offset="0.773437"/><stop stop-opacity="1" stop-color="rgb(6.768799%, 80.276489%, 71.504211%)" offset="0.78125"/><stop stop-opacity="1" stop-color="rgb(6.698608%, 80.502319%, 71.47522%)" offset="0.789063"/><stop stop-opacity="1" stop-color="rgb(6.626892%, 80.726624%, 71.447754%)" offset="0.796875"/><stop stop-opacity="1" stop-color="rgb(6.555176%, 80.952454%, 71.418762%)" offset="0.804688"/><stop stop-opacity="1" stop-color="rgb(6.483459%, 81.178284%, 71.389771%)" offset="0.8125"/><stop stop-opacity="1" stop-color="rgb(6.413269%, 81.404114%, 71.362305%)" offset="0.820312"/><stop stop-opacity="1" stop-color="rgb(6.341553%, 81.629944%, 71.333313%)" offset="0.828125"/><stop stop-opacity="1" stop-color="rgb(6.269836%, 81.855774%, 71.305847%)" offset="0.835938"/><stop stop-opacity="1" stop-color="rgb(6.199646%, 82.081604%, 71.276855%)" offset="0.84375"/><stop stop-opacity="1" stop-color="rgb(6.12793%, 82.307434%, 71.24939%)" offset="0.851562"/><stop stop-opacity="1" stop-color="rgb(6.056213%, 82.533264%, 71.220398%)" offset="0.859375"/><stop stop-opacity="1" stop-color="rgb(5.984497%, 82.759094%, 71.191406%)" offset="0.867187"/><stop stop-opacity="1" stop-color="rgb(5.914307%, 82.984924%, 71.16394%)" offset="0.875"/><stop stop-opacity="1" stop-color="rgb(5.84259%, 83.210754%, 71.134949%)" offset="0.882812"/><stop stop-opacity="1" stop-color="rgb(5.770874%, 83.435059%, 71.107483%)" offset="0.890625"/><stop stop-opacity="1" stop-color="rgb(5.700684%, 83.660889%, 71.078491%)" offset="0.898438"/><stop stop-opacity="1" stop-color="rgb(5.628967%, 83.886719%, 71.051025%)" offset="0.90625"/><stop stop-opacity="1" stop-color="rgb(5.54657%, 84.14917%, 71.017456%)" offset="0.9375"/><stop stop-opacity="1" stop-color="rgb(5.499268%, 84.298706%, 70.999146%)" offset="1"/></linearGradient><clipPath id="4c67450d3c"><path d="M 396.863281 0.0664062 L 548 0.0664062 L 548 91.097656 L 396.863281 91.097656 Z M 396.863281 0.0664062 " clip-rule="nonzero"/></clipPath></defs><g clip-path="url(#1ccc4884b4)"><path fill="#ffd600" d="M 194.96875 5.273438 L 275.554688 5.273438 L 275.554688 85.859375 L 194.96875 85.859375 Z M 194.96875 5.273438 " fill-opacity="1" fill-rule="nonzero"/></g><path fill="#000001" d="M 247.660156 65.59375 C 249.207031 68.109375 250.890625 70.519531 254.457031 70.519531 C 257.453125 70.519531 259.023438 69.03125 259.023438 66.972656 C 259.023438 64.507812 257.398438 63.632812 254.105469 62.199219 L 252.296875 61.425781 C 247.082031 59.214844 243.617188 56.445312 243.617188 50.589844 C 243.617188 45.195312 247.746094 41.089844 254.199219 41.089844 C 258.796875 41.089844 262.097656 42.683594 264.480469 46.851562 L 258.851562 50.449219 C 257.613281 48.234375 256.273438 47.363281 254.199219 47.363281 C 252.082031 47.363281 250.742188 48.703125 250.742188 50.449219 C 250.742188 52.605469 252.085938 53.476562 255.183594 54.816406 L 256.992188 55.585938 C 263.136719 58.203125 266.601562 60.875 266.601562 66.882812 C 266.601562 73.355469 261.488281 76.90625 254.625 76.90625 C 247.914062 76.90625 244.101562 73.535156 241.976562 69.363281 Z M 221.722656 65.777344 C 222.855469 67.804688 224.578125 69.363281 227.054688 69.363281 C 229.421875 69.363281 230.785156 68.429688 230.785156 64.792969 L 230.785156 41.089844 L 238.246094 41.089844 L 238.246094 65.9375 C 238.246094 73.476562 233.875 76.90625 227.488281 76.90625 C 221.722656 76.90625 217.558594 72.996094 215.859375 69.363281 Z M 221.722656 65.777344 " fill-opacity="1" fill-rule="nonzero"/><g clip-path="url(#6ac6cd8f47)"><path fill="#00d8ff" d="M 364.386719 31.496094 C 363.457031 31.179688 362.523438 30.882812 361.578125 30.613281 C 361.738281 29.964844 361.882812 29.324219 362.011719 28.695312 C 364.140625 18.367188 362.75 10.046875 358 7.308594 C 353.449219 4.683594 346.003906 7.421875 338.484375 13.96875 C 337.742188 14.613281 337.019531 15.277344 336.3125 15.960938 C 335.835938 15.507812 335.355469 15.0625 334.867188 14.625 C 326.984375 7.625 319.085938 4.675781 314.34375 7.421875 C 309.792969 10.054688 308.449219 17.878906 310.363281 27.664062 C 310.554688 28.632812 310.769531 29.597656 311.007812 30.558594 C 309.890625 30.875 308.808594 31.214844 307.777344 31.574219 C 298.539062 34.796875 292.636719 39.847656 292.636719 45.085938 C 292.636719 50.496094 298.972656 55.921875 308.59375 59.214844 C 309.375 59.480469 310.164062 59.726562 310.953125 59.953125 C 310.699219 60.984375 310.46875 62.023438 310.269531 63.070312 C 308.445312 72.6875 309.871094 80.324219 314.40625 82.941406 C 319.089844 85.644531 326.953125 82.867188 334.609375 76.167969 C 335.230469 75.625 335.839844 75.066406 336.429688 74.488281 C 337.199219 75.230469 337.984375 75.949219 338.789062 76.644531 C 346.207031 83.027344 353.53125 85.605469 358.0625 82.980469 C 362.746094 80.269531 364.265625 72.066406 362.289062 62.085938 C 362.136719 61.304688 361.960938 60.527344 361.765625 59.753906 C 362.320312 59.589844 362.863281 59.421875 363.390625 59.246094 C 373.394531 55.929688 379.902344 50.570312 379.902344 45.085938 C 379.902344 39.828125 373.8125 34.742188 364.386719 31.496094 Z M 362.21875 55.707031 C 361.742188 55.863281 361.25 56.015625 360.75 56.164062 C 359.648438 52.667969 358.15625 48.945312 356.332031 45.105469 C 358.074219 41.351562 359.507812 37.679688 360.578125 34.203125 C 361.472656 34.464844 362.339844 34.734375 363.175781 35.023438 C 371.25 37.804688 376.175781 41.917969 376.175781 45.085938 C 376.175781 48.460938 370.855469 52.84375 362.21875 55.707031 Z M 358.632812 62.8125 C 359.507812 67.222656 359.632812 71.214844 359.054688 74.335938 C 358.535156 77.136719 357.488281 79.003906 356.195312 79.753906 C 353.445312 81.347656 347.566406 79.277344 341.222656 73.816406 C 340.472656 73.167969 339.742188 72.5 339.027344 71.8125 C 341.488281 69.125 343.945312 65.996094 346.34375 62.523438 C 350.5625 62.148438 354.546875 61.535156 358.160156 60.699219 C 358.335938 61.398438 358.492188 62.105469 358.632812 62.8125 Z M 322.390625 79.480469 C 319.703125 80.429688 317.5625 80.457031 316.269531 79.710938 C 313.515625 78.121094 312.371094 71.988281 313.933594 63.765625 C 314.117188 62.792969 314.332031 61.828125 314.570312 60.867188 C 318.144531 61.65625 322.101562 62.226562 326.328125 62.570312 C 328.742188 65.96875 331.273438 69.09375 333.820312 71.828125 C 333.277344 72.351562 332.722656 72.863281 332.15625 73.359375 C 328.773438 76.320312 325.378906 78.421875 322.390625 79.480469 Z M 309.800781 55.683594 C 305.546875 54.230469 302.03125 52.339844 299.625 50.273438 C 297.460938 48.421875 296.367188 46.578125 296.367188 45.085938 C 296.367188 41.90625 301.105469 37.851562 309.003906 35.09375 C 309.964844 34.761719 310.96875 34.445312 312.007812 34.148438 C 313.101562 37.703125 314.535156 41.417969 316.261719 45.175781 C 314.511719 48.988281 313.058594 52.765625 311.957031 56.359375 C 311.230469 56.152344 310.515625 55.925781 309.800781 55.683594 Z M 314.019531 26.949219 C 312.382812 18.5625 313.46875 12.238281 316.210938 10.648438 C 319.128906 8.960938 325.585938 11.371094 332.390625 17.414062 C 332.832031 17.808594 333.269531 18.214844 333.699219 18.625 C 331.164062 21.347656 328.660156 24.449219 326.265625 27.828125 C 322.160156 28.207031 318.234375 28.820312 314.621094 29.640625 C 314.398438 28.746094 314.199219 27.851562 314.019531 26.949219 Z M 351.664062 36.25 C 350.808594 34.773438 349.925781 33.316406 349.007812 31.882812 C 351.792969 32.234375 354.460938 32.703125 356.964844 33.273438 C 356.214844 35.683594 355.277344 38.207031 354.171875 40.792969 C 353.367188 39.261719 352.53125 37.746094 351.664062 36.25 Z M 336.3125 21.289062 C 338.03125 23.152344 339.753906 25.234375 341.449219 27.492188 C 338.011719 27.328125 334.570312 27.328125 331.132812 27.488281 C 332.828125 25.253906 334.566406 23.175781 336.3125 21.289062 Z M 320.863281 36.273438 C 320.007812 37.757812 319.1875 39.265625 318.398438 40.789062 C 317.316406 38.210938 316.386719 35.679688 315.628906 33.234375 C 318.117188 32.675781 320.773438 32.222656 323.539062 31.875 C 322.613281 33.320312 321.722656 34.785156 320.863281 36.273438 Z M 323.617188 58.5625 C 320.761719 58.242188 318.066406 57.808594 315.574219 57.269531 C 316.347656 54.777344 317.296875 52.191406 318.40625 49.5625 C 319.195312 51.085938 320.019531 52.589844 320.878906 54.078125 C 321.761719 55.605469 322.679688 57.101562 323.617188 58.5625 Z M 336.414062 69.144531 C 334.648438 67.238281 332.886719 65.128906 331.164062 62.859375 C 332.835938 62.921875 334.539062 62.957031 336.269531 62.957031 C 338.050781 62.957031 339.808594 62.917969 341.539062 62.839844 C 339.839844 65.148438 338.125 67.261719 336.414062 69.144531 Z M 354.207031 49.425781 C 355.375 52.085938 356.359375 54.660156 357.140625 57.105469 C 354.609375 57.683594 351.878906 58.148438 349 58.496094 C 349.921875 57.03125 350.8125 55.550781 351.675781 54.050781 C 352.554688 52.53125 353.398438 50.988281 354.207031 49.425781 Z M 348.449219 52.1875 C 347.125 54.488281 345.730469 56.738281 344.261719 58.945312 C 341.601562 59.136719 338.9375 59.230469 336.269531 59.226562 C 333.554688 59.226562 330.914062 59.144531 328.371094 58.976562 C 326.863281 56.777344 325.441406 54.519531 324.105469 52.210938 C 322.773438 49.914062 321.53125 47.566406 320.382812 45.175781 C 321.53125 42.78125 322.769531 40.433594 324.09375 38.136719 C 325.417969 35.835938 326.828125 33.589844 328.324219 31.398438 C 330.917969 31.199219 333.582031 31.097656 336.269531 31.097656 C 338.972656 31.097656 341.636719 31.203125 344.230469 31.398438 C 345.710938 33.589844 347.113281 35.828125 348.4375 38.117188 C 349.765625 40.410156 351.019531 42.746094 352.199219 45.121094 C 351.03125 47.519531 349.78125 49.878906 348.449219 52.1875 Z M 356.140625 10.539062 C 359.0625 12.226562 360.195312 19.023438 358.363281 27.941406 C 358.242188 28.511719 358.113281 29.089844 357.96875 29.675781 C 354.347656 28.839844 350.417969 28.21875 346.300781 27.832031 C 343.902344 24.417969 341.417969 21.3125 338.925781 18.621094 C 339.578125 17.992188 340.246094 17.378906 340.929688 16.78125 C 347.375 11.171875 353.394531 8.957031 356.140625 10.539062 Z M 336.269531 37.289062 C 340.574219 37.289062 344.0625 40.78125 344.0625 45.085938 C 344.0625 49.390625 340.574219 52.882812 336.269531 52.882812 C 331.96875 52.882812 328.476562 49.390625 328.476562 45.085938 C 328.476562 40.78125 331.96875 37.289062 336.269531 37.289062 Z M 336.269531 37.289062 " fill-opacity="1" fill-rule="nonzero"/></g><g clip-path="url(#dc18a6a88f)"><path fill="#e44d26" d="M 9.558594 86.863281 L 2.304688 5.699219 L 82 5.699219 L 74.738281 86.847656 L 42.101562 95.875 Z M 9.558594 86.863281 " fill-opacity="1" fill-rule="nonzero"/></g><path fill="#f16529" d="M 42.152344 88.976562 L 68.527344 81.683594 L 74.730469 12.335938 L 42.152344 12.335938 Z M 42.152344 88.976562 " fill-opacity="1" fill-rule="nonzero"/><path fill="#ebebeb" d="M 42.152344 42.441406 L 28.949219 42.441406 L 28.035156 32.246094 L 42.152344 32.246094 L 42.152344 22.292969 L 17.132812 22.292969 L 17.371094 24.960938 L 19.824219 52.394531 L 42.152344 52.394531 Z M 42.152344 68.289062 L 42.105469 68.300781 L 30.996094 65.308594 L 30.285156 57.367188 L 20.269531 57.367188 L 21.667969 73 L 42.105469 78.65625 L 42.152344 78.644531 Z M 42.152344 68.289062 " fill-opacity="1" fill-rule="nonzero"/><path fill="#ffffff" d="M 42.117188 42.441406 L 42.117188 52.394531 L 54.402344 52.394531 L 53.242188 65.304688 L 42.113281 68.296875 L 42.113281 78.652344 L 62.566406 73 L 62.71875 71.316406 L 65.066406 45.105469 L 65.308594 42.4375 L 62.621094 42.4375 Z M 42.117188 22.292969 L 42.117188 32.246094 L 66.21875 32.246094 L 66.417969 30.007812 L 66.871094 24.960938 L 67.109375 22.289062 Z M 42.117188 22.292969 " fill-opacity="1" fill-rule="nonzero"/><g clip-path="url(#d63162f78b)"><path fill="#0277bd" d="M 179.511719 4.492188 L 98.195312 4.492188 L 105.371094 85.945312 L 138.851562 95.527344 L 172.335938 85.945312 Z M 179.511719 4.492188 " fill-opacity="1" fill-rule="nonzero"/></g><path fill="#039be5" d="M 138.851562 11.679688 L 138.851562 88.097656 L 165.640625 80.433594 L 171.621094 11.679688 Z M 138.851562 11.679688 " fill-opacity="1" fill-rule="nonzero"/><path fill="#ffffff" d="M 160.617188 23.65625 L 138.851562 23.65625 L 138.851562 33.238281 L 150.574219 33.238281 L 149.855469 42.824219 L 138.851562 42.824219 L 138.851562 52.40625 L 149.375 52.40625 L 148.660156 63.183594 L 138.851562 66.539062 L 138.851562 76.601562 L 157.746094 70.371094 L 159.421875 42.824219 Z M 160.617188 23.65625 " fill-opacity="1" fill-rule="nonzero"/><path fill="#eeeeee" d="M 138.851562 23.65625 L 138.851562 33.238281 L 117.566406 33.238281 L 116.851562 23.65625 Z M 127.851562 42.824219 L 128.328125 52.40625 L 138.851562 52.40625 L 138.851562 42.824219 Z M 128.808594 57.195312 L 119.242188 57.195312 L 119.957031 70.371094 L 138.851562 76.601562 L 138.851562 66.539062 L 129.046875 63.183594 Z M 128.808594 57.195312 " fill-opacity="1" fill-rule="nonzero"/><g clip-path="url(#e6bb735659)"><g clip-path="url(#4a99c05e03)"><path fill="url(#64e2474814)" d="M 568.863281 5.273438 L 568.863281 77.652344 L 688.992188 77.652344 L 688.992188 5.273438 Z M 568.863281 5.273438 " fill-rule="nonzero"/></g></g><g clip-path="url(#4c67450d3c)"><path fill="#ebebeb" d="M 432.519531 23.871094 L 461.019531 23.871094 L 461.019531 26.136719 L 435.128906 26.136719 L 435.128906 43.1875 L 459.476562 43.1875 L 459.476562 45.453125 L 435.128906 45.453125 L 435.128906 64.171875 L 461.316406 64.171875 L 461.316406 66.4375 L 432.519531 66.4375 Z M 463.574219 23.871094 L 466.601562 23.871094 L 480.019531 42.589844 L 493.734375 23.871094 L 512.390625 0.0976562 L 481.742188 44.558594 L 497.539062 66.4375 L 494.386719 66.4375 L 480.019531 46.523438 L 465.589844 66.4375 L 462.503906 66.4375 L 478.414062 44.558594 Z M 498.664062 26.136719 L 498.664062 23.871094 L 531.144531 23.871094 L 531.144531 26.136719 L 516.179688 26.136719 L 516.179688 66.4375 L 513.570312 66.4375 L 513.570312 26.136719 Z M 396.863281 23.871094 L 400.128906 23.871094 L 445.160156 91.257812 L 426.550781 66.4375 L 399.59375 27.09375 L 399.476562 66.4375 L 396.863281 66.4375 Z M 530.878906 63.488281 C 530.347656 63.488281 529.945312 63.074219 529.945312 62.539062 C 529.945312 62.003906 530.347656 61.59375 530.878906 61.59375 C 531.417969 61.59375 531.816406 62.003906 531.816406 62.539062 C 531.816406 63.074219 531.417969 63.488281 530.878906 63.488281 Z M 533.445312 60.992188 L 534.847656 60.992188 C 534.863281 61.75 535.417969 62.257812 536.230469 62.257812 C 537.140625 62.257812 537.652344 61.714844 537.652344 60.6875 L 537.652344 54.199219 L 539.078125 54.199219 L 539.078125 60.695312 C 539.078125 62.539062 538.011719 63.601562 536.246094 63.601562 C 534.585938 63.601562 533.445312 62.570312 533.445312 60.992188 Z M 540.941406 60.910156 L 542.351562 60.910156 C 542.46875 61.785156 543.324219 62.335938 544.550781 62.335938 C 545.691406 62.335938 546.53125 61.746094 546.53125 60.929688 C 546.53125 60.230469 545.996094 59.808594 544.785156 59.523438 L 543.601562 59.238281 C 541.945312 58.851562 541.1875 58.046875 541.1875 56.699219 C 541.1875 55.0625 542.523438 53.976562 544.523438 53.976562 C 546.386719 53.976562 547.742188 55.0625 547.824219 56.609375 L 546.441406 56.609375 C 546.308594 55.761719 545.570312 55.234375 544.503906 55.234375 C 543.378906 55.234375 542.628906 55.777344 542.628906 56.605469 C 542.628906 57.257812 543.113281 57.632812 544.308594 57.914062 L 545.316406 58.164062 C 547.199219 58.601562 547.972656 59.367188 547.972656 60.746094 C 547.972656 62.5 546.613281 63.601562 544.441406 63.601562 C 542.40625 63.601562 541.039062 62.554688 540.941406 60.910156 Z M 540.941406 60.910156 " fill-opacity="1" fill-rule="nonzero"/></g></svg>