<svg xmlns="http://www.w3.org/2000/svg" xmlns:xlink="http://www.w3.org/1999/xlink" width="426" zoomAndPan="magnify" viewBox="0 0 319.5 320.250004" height="427" preserveAspectRatio="xMidYMid meet" version="1.0"><defs><clipPath id="ccfcd66ad6"><path d="M 0.742188 0.734375 L 318.8125 0.734375 L 318.8125 318.804688 L 0.742188 318.804688 Z M 0.742188 0.734375 " clip-rule="nonzero"/></clipPath><clipPath id="36a7c377fd"><path d="M 159.777344 0.734375 C 71.945312 0.734375 0.742188 71.9375 0.742188 159.769531 C 0.742188 247.601562 71.945312 318.804688 159.777344 318.804688 C 247.609375 318.804688 318.8125 247.601562 318.8125 159.769531 C 318.8125 71.9375 247.609375 0.734375 159.777344 0.734375 Z M 159.777344 0.734375 " clip-rule="nonzero"/></clipPath><clipPath id="14c7e1bf0e"><path d="M 146.765625 126.832031 L 227.578125 126.832031 L 227.578125 207.640625 L 146.765625 207.640625 Z M 146.765625 126.832031 " clip-rule="nonzero"/></clipPath><clipPath id="643a95437d"><path d="M 47.332031 189 L 134.875 189 L 134.875 268 L 47.332031 268 Z M 47.332031 189 " clip-rule="nonzero"/></clipPath><clipPath id="0c0c047b6c"><path d="M 48 77.429688 L 128.742188 77.429688 L 128.742188 170 L 48 170 Z M 48 77.429688 " clip-rule="nonzero"/></clipPath><clipPath id="9d6b151099"><path d="M 143.988281 24.84375 L 225.546875 24.84375 L 225.546875 116.128906 L 143.988281 116.128906 Z M 143.988281 24.84375 " clip-rule="nonzero"/></clipPath><clipPath id="316b5dc6f6"><path d="M 150.558594 221.632812 L 271.023438 221.632812 L 271.023438 294.214844 L 150.558594 294.214844 Z M 150.558594 221.632812 " clip-rule="nonzero"/></clipPath><clipPath id="ae74fa21a7"><path d="M 210.792969 221.632812 C 194.730469 221.632812 184.691406 229.699219 180.675781 245.828125 C 186.699219 237.761719 193.726562 234.738281 201.757812 236.753906 C 206.339844 237.90625 209.613281 241.242188 213.238281 244.9375 C 219.144531 250.957031 225.976562 257.925781 240.90625 257.925781 C 256.96875 257.925781 267.007812 249.859375 271.019531 233.730469 C 265 241.796875 257.972656 244.820312 249.941406 242.804688 C 245.359375 241.652344 242.085938 238.316406 238.460938 234.621094 C 232.554688 228.601562 225.71875 221.632812 210.792969 221.632812 Z M 180.675781 257.925781 C 164.613281 257.925781 154.578125 265.988281 150.5625 282.117188 C 156.585938 274.050781 163.609375 271.027344 171.640625 273.042969 C 176.222656 274.195312 179.5 277.53125 183.125 281.226562 C 189.027344 287.246094 195.863281 294.214844 210.792969 294.214844 C 226.851562 294.214844 236.890625 286.148438 240.90625 270.019531 C 234.882812 278.085938 227.855469 281.109375 219.824219 279.09375 C 215.242188 277.941406 211.96875 274.605469 208.34375 270.910156 C 202.4375 264.890625 195.605469 257.925781 180.675781 257.925781 Z M 180.675781 257.925781 " clip-rule="nonzero"/></clipPath><linearGradient x1="-13.502167" gradientTransform="matrix(0.803067, 0, 0, 0.806445, 150.561177, 221.63383)" y1="23.417482" x2="138.017675" gradientUnits="userSpaceOnUse" y2="110.781539" id="b951acefd6"><stop stop-opacity="1" stop-color="rgb(13.299561%, 59.599304%, 74.099731%)" offset="0"/><stop stop-opacity="1" stop-color="rgb(13.294983%, 59.611511%, 74.098206%)" offset="0.0625"/><stop stop-opacity="1" stop-color="rgb(13.25531%, 59.738159%, 74.081421%)" offset="0.0703125"/><stop stop-opacity="1" stop-color="rgb(13.183594%, 59.963989%, 74.052429%)" offset="0.078125"/><stop stop-opacity="1" stop-color="rgb(13.111877%, 60.189819%, 74.024963%)" offset="0.0859375"/><stop stop-opacity="1" stop-color="rgb(13.041687%, 60.414124%, 73.995972%)" offset="0.09375"/><stop stop-opacity="1" stop-color="rgb(12.969971%, 60.639954%, 73.968506%)" offset="0.101562"/><stop stop-opacity="1" stop-color="rgb(12.898254%, 60.865784%, 73.939514%)" offset="0.109375"/><stop stop-opacity="1" stop-color="rgb(12.828064%, 61.091614%, 73.912048%)" offset="0.117188"/><stop stop-opacity="1" stop-color="rgb(12.756348%, 61.317444%, 73.883057%)" offset="0.125"/><stop stop-opacity="1" stop-color="rgb(12.684631%, 61.543274%, 73.854065%)" offset="0.132812"/><stop stop-opacity="1" stop-color="rgb(12.612915%, 61.769104%, 73.826599%)" offset="0.140625"/><stop stop-opacity="1" stop-color="rgb(12.542725%, 61.994934%, 73.797607%)" offset="0.148438"/><stop stop-opacity="1" stop-color="rgb(12.471008%, 62.220764%, 73.770142%)" offset="0.15625"/><stop stop-opacity="1" stop-color="rgb(12.399292%, 62.446594%, 73.74115%)" offset="0.164062"/><stop stop-opacity="1" stop-color="rgb(12.329102%, 62.672424%, 73.713684%)" offset="0.171875"/><stop stop-opacity="1" stop-color="rgb(12.257385%, 62.896729%, 73.684692%)" offset="0.179688"/><stop stop-opacity="1" stop-color="rgb(12.185669%, 63.122559%, 73.657227%)" offset="0.1875"/><stop stop-opacity="1" stop-color="rgb(12.113953%, 63.348389%, 73.628235%)" offset="0.195313"/><stop stop-opacity="1" stop-color="rgb(12.043762%, 63.574219%, 73.599243%)" offset="0.203125"/><stop stop-opacity="1" stop-color="rgb(11.972046%, 63.800049%, 73.571777%)" offset="0.210938"/><stop stop-opacity="1" stop-color="rgb(11.90033%, 64.025879%, 73.542786%)" offset="0.21875"/><stop stop-opacity="1" stop-color="rgb(11.830139%, 64.251709%, 73.51532%)" offset="0.226562"/><stop stop-opacity="1" stop-color="rgb(11.758423%, 64.477539%, 73.486328%)" offset="0.234375"/><stop stop-opacity="1" stop-color="rgb(11.686707%, 64.703369%, 73.458862%)" offset="0.242188"/><stop stop-opacity="1" stop-color="rgb(11.61499%, 64.929199%, 73.429871%)" offset="0.25"/><stop stop-opacity="1" stop-color="rgb(11.5448%, 65.155029%, 73.400879%)" offset="0.257031"/><stop stop-opacity="1" stop-color="rgb(11.509705%, 65.267944%, 73.387146%)" offset="0.257812"/><stop stop-opacity="1" stop-color="rgb(11.473083%, 65.380859%, 73.373413%)" offset="0.265625"/><stop stop-opacity="1" stop-color="rgb(11.401367%, 65.605164%, 73.344421%)" offset="0.273437"/><stop stop-opacity="1" stop-color="rgb(11.331177%, 65.830994%, 73.316956%)" offset="0.28125"/><stop stop-opacity="1" stop-color="rgb(11.25946%, 66.056824%, 73.287964%)" offset="0.289062"/><stop stop-opacity="1" stop-color="rgb(11.187744%, 66.282654%, 73.260498%)" offset="0.296875"/><stop stop-opacity="1" stop-color="rgb(11.116028%, 66.508484%, 73.231506%)" offset="0.304688"/><stop stop-opacity="1" stop-color="rgb(11.045837%, 66.734314%, 73.204041%)" offset="0.3125"/><stop stop-opacity="1" stop-color="rgb(10.974121%, 66.960144%, 73.175049%)" offset="0.320312"/><stop stop-opacity="1" stop-color="rgb(10.902405%, 67.185974%, 73.146057%)" offset="0.328125"/><stop stop-opacity="1" stop-color="rgb(10.832214%, 67.411804%, 73.118591%)" offset="0.335938"/><stop stop-opacity="1" stop-color="rgb(10.760498%, 67.637634%, 73.0896%)" offset="0.34375"/><stop stop-opacity="1" stop-color="rgb(10.688782%, 67.863464%, 73.062134%)" offset="0.351562"/><stop stop-opacity="1" stop-color="rgb(10.618591%, 68.087769%, 73.033142%)" offset="0.359375"/><stop stop-opacity="1" stop-color="rgb(10.546875%, 68.313599%, 73.005676%)" offset="0.367188"/><stop stop-opacity="1" stop-color="rgb(10.475159%, 68.539429%, 72.976685%)" offset="0.375"/><stop stop-opacity="1" stop-color="rgb(10.403442%, 68.765259%, 72.947693%)" offset="0.382813"/><stop stop-opacity="1" stop-color="rgb(10.333252%, 68.991089%, 72.920227%)" offset="0.390625"/><stop stop-opacity="1" stop-color="rgb(10.261536%, 69.216919%, 72.891235%)" offset="0.398438"/><stop stop-opacity="1" stop-color="rgb(10.189819%, 69.442749%, 72.86377%)" offset="0.40625"/><stop stop-opacity="1" stop-color="rgb(10.119629%, 69.668579%, 72.834778%)" offset="0.414063"/><stop stop-opacity="1" stop-color="rgb(10.047913%, 69.894409%, 72.807312%)" offset="0.421875"/><stop stop-opacity="1" stop-color="rgb(9.976196%, 70.120239%, 72.77832%)" offset="0.429688"/><stop stop-opacity="1" stop-color="rgb(9.90448%, 70.346069%, 72.749329%)" offset="0.4375"/><stop stop-opacity="1" stop-color="rgb(9.83429%, 70.570374%, 72.721863%)" offset="0.445312"/><stop stop-opacity="1" stop-color="rgb(9.762573%, 70.796204%, 72.692871%)" offset="0.453125"/><stop stop-opacity="1" stop-color="rgb(9.690857%, 71.022034%, 72.665405%)" offset="0.460938"/><stop stop-opacity="1" stop-color="rgb(9.620667%, 71.247864%, 72.636414%)" offset="0.46875"/><stop stop-opacity="1" stop-color="rgb(9.54895%, 71.473694%, 72.608948%)" offset="0.476562"/><stop stop-opacity="1" stop-color="rgb(9.477234%, 71.699524%, 72.579956%)" offset="0.484375"/><stop stop-opacity="1" stop-color="rgb(9.405518%, 71.925354%, 72.55249%)" offset="0.492188"/><stop stop-opacity="1" stop-color="rgb(9.335327%, 72.151184%, 72.523499%)" offset="0.5"/><stop stop-opacity="1" stop-color="rgb(9.263611%, 72.377014%, 72.494507%)" offset="0.507812"/><stop stop-opacity="1" stop-color="rgb(9.191895%, 72.602844%, 72.467041%)" offset="0.515625"/><stop stop-opacity="1" stop-color="rgb(9.121704%, 72.828674%, 72.438049%)" offset="0.523437"/><stop stop-opacity="1" stop-color="rgb(9.049988%, 73.054504%, 72.410583%)" offset="0.53125"/><stop stop-opacity="1" stop-color="rgb(8.978271%, 73.278809%, 72.381592%)" offset="0.539062"/><stop stop-opacity="1" stop-color="rgb(8.908081%, 73.504639%, 72.354126%)" offset="0.546875"/><stop stop-opacity="1" stop-color="rgb(8.836365%, 73.730469%, 72.325134%)" offset="0.554687"/><stop stop-opacity="1" stop-color="rgb(8.764648%, 73.956299%, 72.296143%)" offset="0.5625"/><stop stop-opacity="1" stop-color="rgb(8.692932%, 74.182129%, 72.268677%)" offset="0.570312"/><stop stop-opacity="1" stop-color="rgb(8.622742%, 74.407959%, 72.239685%)" offset="0.578125"/><stop stop-opacity="1" stop-color="rgb(8.551025%, 74.633789%, 72.212219%)" offset="0.585938"/><stop stop-opacity="1" stop-color="rgb(8.479309%, 74.859619%, 72.183228%)" offset="0.59375"/><stop stop-opacity="1" stop-color="rgb(8.409119%, 75.085449%, 72.155762%)" offset="0.601562"/><stop stop-opacity="1" stop-color="rgb(8.337402%, 75.311279%, 72.12677%)" offset="0.609375"/><stop stop-opacity="1" stop-color="rgb(8.265686%, 75.537109%, 72.099304%)" offset="0.617188"/><stop stop-opacity="1" stop-color="rgb(8.19397%, 75.761414%, 72.070312%)" offset="0.625"/><stop stop-opacity="1" stop-color="rgb(8.123779%, 75.987244%, 72.041321%)" offset="0.632812"/><stop stop-opacity="1" stop-color="rgb(8.052063%, 76.213074%, 72.013855%)" offset="0.640625"/><stop stop-opacity="1" stop-color="rgb(7.980347%, 76.438904%, 71.984863%)" offset="0.648438"/><stop stop-opacity="1" stop-color="rgb(7.910156%, 76.664734%, 71.957397%)" offset="0.65625"/><stop stop-opacity="1" stop-color="rgb(7.83844%, 76.890564%, 71.928406%)" offset="0.664062"/><stop stop-opacity="1" stop-color="rgb(7.766724%, 77.116394%, 71.90094%)" offset="0.671875"/><stop stop-opacity="1" stop-color="rgb(7.695007%, 77.342224%, 71.871948%)" offset="0.679688"/><stop stop-opacity="1" stop-color="rgb(7.624817%, 77.568054%, 71.842957%)" offset="0.6875"/><stop stop-opacity="1" stop-color="rgb(7.553101%, 77.793884%, 71.815491%)" offset="0.695312"/><stop stop-opacity="1" stop-color="rgb(7.481384%, 78.019714%, 71.786499%)" offset="0.703125"/><stop stop-opacity="1" stop-color="rgb(7.411194%, 78.244019%, 71.759033%)" offset="0.710938"/><stop stop-opacity="1" stop-color="rgb(7.339478%, 78.469849%, 71.730042%)" offset="0.71875"/><stop stop-opacity="1" stop-color="rgb(7.267761%, 78.695679%, 71.702576%)" offset="0.726562"/><stop stop-opacity="1" stop-color="rgb(7.196045%, 78.921509%, 71.673584%)" offset="0.734375"/><stop stop-opacity="1" stop-color="rgb(7.125854%, 79.147339%, 71.646118%)" offset="0.742188"/><stop stop-opacity="1" stop-color="rgb(7.054138%, 79.373169%, 71.617126%)" offset="0.742969"/><stop stop-opacity="1" stop-color="rgb(7.019043%, 79.486084%, 71.603394%)" offset="0.75"/><stop stop-opacity="1" stop-color="rgb(6.982422%, 79.598999%, 71.588135%)" offset="0.757812"/><stop stop-opacity="1" stop-color="rgb(6.912231%, 79.824829%, 71.560669%)" offset="0.765625"/><stop stop-opacity="1" stop-color="rgb(6.840515%, 80.050659%, 71.531677%)" offset="0.773438"/><stop stop-opacity="1" stop-color="rgb(6.768799%, 80.276489%, 71.504211%)" offset="0.78125"/><stop stop-opacity="1" stop-color="rgb(6.698608%, 80.502319%, 71.47522%)" offset="0.789063"/><stop stop-opacity="1" stop-color="rgb(6.626892%, 80.726624%, 71.447754%)" offset="0.796875"/><stop stop-opacity="1" stop-color="rgb(6.555176%, 80.952454%, 71.418762%)" offset="0.804688"/><stop stop-opacity="1" stop-color="rgb(6.483459%, 81.178284%, 71.389771%)" offset="0.8125"/><stop stop-opacity="1" stop-color="rgb(6.413269%, 81.404114%, 71.362305%)" offset="0.820313"/><stop stop-opacity="1" stop-color="rgb(6.341553%, 81.629944%, 71.333313%)" offset="0.828125"/><stop stop-opacity="1" stop-color="rgb(6.269836%, 81.855774%, 71.305847%)" offset="0.835938"/><stop stop-opacity="1" stop-color="rgb(6.199646%, 82.081604%, 71.276855%)" offset="0.84375"/><stop stop-opacity="1" stop-color="rgb(6.12793%, 82.307434%, 71.24939%)" offset="0.851563"/><stop stop-opacity="1" stop-color="rgb(6.056213%, 82.533264%, 71.220398%)" offset="0.859375"/><stop stop-opacity="1" stop-color="rgb(5.984497%, 82.759094%, 71.191406%)" offset="0.867188"/><stop stop-opacity="1" stop-color="rgb(5.914307%, 82.984924%, 71.16394%)" offset="0.875"/><stop stop-opacity="1" stop-color="rgb(5.84259%, 83.210754%, 71.134949%)" offset="0.882812"/><stop stop-opacity="1" stop-color="rgb(5.770874%, 83.435059%, 71.107483%)" offset="0.890625"/><stop stop-opacity="1" stop-color="rgb(5.700684%, 83.660889%, 71.078491%)" offset="0.898437"/><stop stop-opacity="1" stop-color="rgb(5.628967%, 83.886719%, 71.051025%)" offset="0.90625"/><stop stop-opacity="1" stop-color="rgb(5.54657%, 84.14917%, 71.017456%)" offset="0.9375"/><stop stop-opacity="1" stop-color="rgb(5.499268%, 84.298706%, 70.999146%)" offset="1"/></linearGradient></defs><g clip-path="url(#ccfcd66ad6)"><g clip-path="url(#36a7c377fd)"><path fill="#9dbdba" d="M 0.742188 0.734375 L 318.8125 0.734375 L 318.8125 318.804688 L 0.742188 318.804688 Z M 0.742188 0.734375 " fill-opacity="1" fill-rule="nonzero"/></g></g><g clip-path="url(#14c7e1bf0e)"><path fill="#ffd600" d="M 146.765625 126.832031 L 227.578125 126.832031 L 227.578125 207.640625 L 146.765625 207.640625 Z M 146.765625 126.832031 " fill-opacity="1" fill-rule="nonzero"/></g><path fill="#000001" d="M 199.605469 187.320312 C 201.15625 189.84375 202.84375 192.261719 206.421875 192.261719 C 209.425781 192.261719 211 190.769531 211 188.703125 C 211 186.230469 209.371094 185.351562 206.066406 183.914062 L 204.253906 183.140625 C 199.027344 180.925781 195.550781 178.144531 195.550781 172.277344 C 195.550781 166.867188 199.691406 162.75 206.164062 162.75 C 210.769531 162.75 214.082031 164.34375 216.472656 168.523438 L 210.828125 172.132812 C 209.585938 169.914062 208.242188 169.039062 206.164062 169.039062 C 204.039062 169.039062 202.695312 170.382812 202.695312 172.132812 C 202.695312 174.296875 204.042969 175.171875 207.152344 176.511719 L 208.960938 177.285156 C 215.125 179.90625 218.597656 182.589844 218.597656 188.613281 C 218.597656 195.105469 213.472656 198.664062 206.589844 198.664062 C 199.855469 198.664062 196.035156 195.285156 193.90625 191.101562 Z M 173.597656 187.503906 C 174.730469 189.539062 176.457031 191.101562 178.941406 191.101562 C 181.316406 191.101562 182.683594 190.164062 182.683594 186.515625 L 182.683594 162.746094 L 190.164062 162.746094 L 190.164062 187.664062 C 190.164062 195.222656 185.78125 198.664062 179.378906 198.664062 C 173.59375 198.664062 169.417969 194.742188 167.71875 191.101562 Z M 173.597656 187.503906 " fill-opacity="1" fill-rule="nonzero"/><g clip-path="url(#643a95437d)"><path fill="#00d8ff" d="M 119.28125 215.136719 C 118.347656 214.820312 117.410156 214.523438 116.460938 214.25 C 116.621094 213.601562 116.769531 212.957031 116.898438 212.328125 C 119.03125 201.972656 117.636719 193.628906 112.875 190.882812 C 108.308594 188.25 100.84375 190.996094 93.304688 197.558594 C 92.5625 198.207031 91.835938 198.875 91.125 199.558594 C 90.648438 199.105469 90.167969 198.65625 89.675781 198.21875 C 81.773438 191.199219 73.851562 188.242188 69.097656 190.996094 C 64.535156 193.636719 63.183594 201.480469 65.105469 211.296875 C 65.296875 212.265625 65.511719 213.234375 65.75 214.195312 C 64.628906 214.515625 63.546875 214.855469 62.511719 215.214844 C 53.246094 218.445312 47.332031 223.511719 47.332031 228.765625 C 47.332031 234.191406 53.683594 239.632812 63.332031 242.933594 C 64.113281 243.199219 64.902344 243.445312 65.699219 243.671875 C 65.441406 244.707031 65.210938 245.75 65.011719 246.796875 C 63.179688 256.441406 64.609375 264.097656 69.160156 266.722656 C 73.855469 269.433594 81.742188 266.648438 89.421875 259.933594 C 90.042969 259.386719 90.652344 258.828125 91.246094 258.25 C 92.015625 258.992188 92.804688 259.710938 93.613281 260.410156 C 101.050781 266.8125 108.394531 269.398438 112.9375 266.765625 C 117.632812 264.046875 119.15625 255.820312 117.175781 245.8125 C 117.019531 245.027344 116.847656 244.25 116.652344 243.472656 C 117.207031 243.308594 117.75 243.140625 118.277344 242.964844 C 128.3125 239.640625 134.839844 234.261719 134.839844 228.765625 C 134.839844 223.492188 128.730469 218.394531 119.28125 215.136719 Z M 117.105469 239.414062 C 116.625 239.574219 116.132812 239.726562 115.632812 239.875 C 114.527344 236.367188 113.03125 232.636719 111.203125 228.78125 C 112.949219 225.019531 114.386719 221.339844 115.460938 217.851562 C 116.355469 218.113281 117.226562 218.386719 118.0625 218.675781 C 126.160156 221.464844 131.101562 225.585938 131.101562 228.765625 C 131.101562 232.148438 125.765625 236.542969 117.105469 239.414062 Z M 113.507812 246.539062 C 114.386719 250.964844 114.511719 254.964844 113.929688 258.09375 C 113.410156 260.90625 112.359375 262.777344 111.066406 263.53125 C 108.308594 265.125 102.410156 263.050781 96.050781 257.574219 C 95.296875 256.925781 94.5625 256.257812 93.847656 255.566406 C 96.316406 252.867188 98.78125 249.734375 101.183594 246.25 C 105.414062 245.875 109.410156 245.257812 113.035156 244.421875 C 113.210938 245.125 113.367188 245.828125 113.507812 246.539062 Z M 77.164062 263.253906 C 74.46875 264.207031 72.324219 264.234375 71.027344 263.484375 C 68.265625 261.890625 67.117188 255.742188 68.683594 247.496094 C 68.871094 246.519531 69.082031 245.550781 69.324219 244.589844 C 72.90625 245.382812 76.875 245.953125 81.117188 246.296875 C 83.535156 249.707031 86.070312 252.839844 88.628906 255.582031 C 88.085938 256.109375 87.527344 256.621094 86.960938 257.117188 C 83.566406 260.085938 80.164062 262.195312 77.164062 263.253906 Z M 64.542969 239.394531 C 60.273438 237.933594 56.75 236.039062 54.335938 233.96875 C 52.164062 232.109375 51.070312 230.261719 51.070312 228.765625 C 51.070312 225.578125 55.820312 221.511719 63.742188 218.746094 C 64.703125 218.410156 65.710938 218.09375 66.753906 217.796875 C 67.851562 221.363281 69.285156 225.085938 71.019531 228.855469 C 69.265625 232.679688 67.808594 236.464844 66.703125 240.070312 C 65.976562 239.863281 65.257812 239.636719 64.542969 239.394531 Z M 68.773438 210.578125 C 67.128906 202.167969 68.222656 195.824219 70.96875 194.234375 C 73.898438 192.539062 80.371094 194.957031 87.195312 201.015625 C 87.636719 201.414062 88.074219 201.816406 88.507812 202.230469 C 85.964844 204.960938 83.453125 208.070312 81.050781 211.457031 C 76.9375 211.839844 72.996094 212.453125 69.375 213.273438 C 69.152344 212.378906 68.949219 211.480469 68.773438 210.578125 Z M 106.519531 219.902344 C 105.664062 218.425781 104.777344 216.964844 103.859375 215.523438 C 106.652344 215.878906 109.324219 216.347656 111.835938 216.917969 C 111.082031 219.335938 110.144531 221.867188 109.039062 224.457031 C 108.226562 222.921875 107.390625 221.402344 106.519531 219.902344 Z M 91.125 204.902344 C 92.851562 206.769531 94.578125 208.859375 96.277344 211.121094 C 92.832031 210.957031 89.378906 210.957031 85.933594 211.121094 C 87.632812 208.875 89.375 206.792969 91.125 204.902344 Z M 75.636719 219.929688 C 74.777344 221.417969 73.953125 222.925781 73.164062 224.457031 C 72.074219 221.871094 71.144531 219.332031 70.382812 216.878906 C 72.878906 216.320312 75.542969 215.863281 78.316406 215.515625 C 77.390625 216.964844 76.496094 218.4375 75.636719 219.925781 Z M 78.398438 242.277344 C 75.53125 241.957031 72.828125 241.523438 70.332031 240.980469 C 71.105469 238.484375 72.058594 235.890625 73.167969 233.25 C 73.960938 234.78125 74.789062 236.292969 75.648438 237.78125 C 76.535156 239.3125 77.453125 240.816406 78.398438 242.277344 Z M 91.230469 252.890625 C 89.457031 250.976562 87.691406 248.863281 85.964844 246.585938 C 87.640625 246.652344 89.347656 246.683594 91.085938 246.683594 C 92.867188 246.683594 94.632812 246.644531 96.367188 246.566406 C 94.664062 248.882812 92.941406 251.003906 91.230469 252.890625 Z M 109.074219 233.117188 C 110.242188 235.785156 111.226562 238.363281 112.011719 240.820312 C 109.472656 241.398438 106.734375 241.863281 103.847656 242.210938 C 104.773438 240.742188 105.667969 239.257812 106.535156 237.757812 C 107.414062 236.230469 108.261719 234.683594 109.074219 233.117188 Z M 103.296875 235.886719 C 101.972656 238.191406 100.570312 240.453125 99.097656 242.664062 C 96.429688 242.851562 93.757812 242.945312 91.085938 242.945312 C 88.363281 242.945312 85.710938 242.859375 83.160156 242.695312 C 81.652344 240.488281 80.222656 238.222656 78.882812 235.90625 L 78.886719 235.90625 C 77.550781 233.605469 76.304688 231.25 75.152344 228.855469 C 76.304688 226.457031 77.542969 224.101562 78.875 221.796875 C 80.203125 219.492188 81.617188 217.238281 83.117188 215.039062 C 85.71875 214.839844 88.386719 214.738281 91.085938 214.738281 C 93.792969 214.738281 96.464844 214.84375 99.066406 215.039062 C 100.550781 217.234375 101.957031 219.480469 103.285156 221.777344 C 104.617188 224.074219 105.875 226.417969 107.054688 228.800781 C 105.886719 231.207031 104.632812 233.570312 103.296875 235.886719 Z M 111.007812 194.121094 C 113.9375 195.8125 115.078125 202.632812 113.238281 211.574219 C 113.117188 212.144531 112.988281 212.722656 112.84375 213.3125 C 109.210938 212.476562 105.269531 211.851562 101.144531 211.464844 C 98.738281 208.039062 96.246094 204.921875 93.746094 202.226562 C 94.402344 201.59375 95.074219 200.980469 95.757812 200.378906 C 102.21875 194.753906 108.257812 192.535156 111.007812 194.121094 Z M 91.085938 220.945312 C 95.398438 220.945312 98.898438 224.445312 98.898438 228.765625 C 98.898438 233.082031 95.398438 236.582031 91.085938 236.582031 C 86.769531 236.582031 83.269531 233.082031 83.269531 228.765625 C 83.269531 224.445312 86.769531 220.945312 91.085938 220.945312 Z M 91.085938 220.945312 " fill-opacity="1" fill-rule="nonzero"/></g><g clip-path="url(#0c0c047b6c)"><path fill="#e44d26" d="M 55.34375 160.582031 L 48.003906 77.867188 L 128.667969 77.867188 L 121.320312 160.566406 L 88.285156 169.769531 Z M 55.34375 160.582031 " fill-opacity="1" fill-rule="nonzero"/></g><path fill="#f16529" d="M 88.335938 162.738281 L 115.03125 155.308594 L 121.308594 84.632812 L 88.335938 84.632812 Z M 88.335938 162.738281 " fill-opacity="1" fill-rule="nonzero"/><path fill="#ebebeb" d="M 88.335938 115.3125 L 74.972656 115.3125 L 74.050781 104.921875 L 88.335938 104.921875 L 88.335938 94.777344 L 63.015625 94.777344 L 63.253906 97.496094 L 65.734375 125.453125 L 88.335938 125.453125 Z M 88.335938 141.65625 L 88.289062 141.667969 L 77.046875 138.617188 L 76.324219 130.523438 L 66.191406 130.523438 L 67.605469 146.453125 L 88.289062 152.21875 L 88.335938 152.210938 Z M 88.335938 141.65625 " fill-opacity="1" fill-rule="nonzero"/><path fill="#ffffff" d="M 88.300781 115.3125 L 88.300781 125.453125 L 100.738281 125.453125 L 99.5625 138.613281 L 88.296875 141.664062 L 88.296875 152.214844 L 109 146.453125 L 109.152344 144.738281 L 111.527344 118.03125 L 111.777344 115.308594 L 109.054688 115.308594 Z M 88.300781 94.777344 L 88.300781 104.921875 L 112.695312 104.921875 L 112.894531 102.640625 L 113.355469 97.496094 L 113.597656 94.773438 Z M 88.300781 94.777344 " fill-opacity="1" fill-rule="nonzero"/><g clip-path="url(#9d6b151099)"><path fill="#0277bd" d="M 225.539062 24.84375 L 143.996094 24.84375 L 151.191406 106.519531 L 184.765625 116.128906 L 218.34375 106.519531 Z M 225.539062 24.84375 " fill-opacity="1" fill-rule="nonzero"/></g><path fill="#039be5" d="M 184.765625 32.050781 L 184.765625 108.683594 L 211.628906 100.996094 L 217.625 32.050781 Z M 184.765625 32.050781 " fill-opacity="1" fill-rule="nonzero"/><path fill="#ffffff" d="M 206.59375 44.0625 L 184.765625 44.0625 L 184.765625 53.671875 L 196.519531 53.671875 L 195.800781 63.28125 L 184.765625 63.28125 L 184.765625 72.890625 L 195.320312 72.890625 L 194.601562 83.699219 L 184.765625 87.0625 L 184.765625 97.152344 L 203.714844 90.90625 L 205.394531 63.28125 Z M 206.59375 44.0625 " fill-opacity="1" fill-rule="nonzero"/><path fill="#eeeeee" d="M 184.765625 44.0625 L 184.765625 53.671875 L 163.421875 53.671875 L 162.703125 44.0625 Z M 173.734375 63.28125 L 174.214844 72.890625 L 184.765625 72.890625 L 184.765625 63.28125 Z M 174.695312 77.691406 L 165.101562 77.691406 L 165.820312 90.90625 L 184.765625 97.152344 L 184.765625 87.0625 L 174.933594 83.699219 Z M 174.695312 77.691406 " fill-opacity="1" fill-rule="nonzero"/><g clip-path="url(#316b5dc6f6)"><g clip-path="url(#ae74fa21a7)"><path fill="url(#b951acefd6)" d="M 150.5625 221.632812 L 150.5625 294.214844 L 271.019531 294.214844 L 271.019531 221.632812 Z M 150.5625 221.632812 " fill-rule="nonzero"/></g></g></svg>